<?xml version="1.0" encoding="utf-8"?>
<!-- Generator: Adobe Illustrator 23.0.5, SVG Export Plug-In . SVG Version: 6.00 Build 0)  -->
<svg version="1.1" id="Layer_1" xmlns="http://www.w3.org/2000/svg" xmlns:xlink="http://www.w3.org/1999/xlink" x="0px" y="0px" 
width="150px" height="150px" viewBox="0 0 609.4 793.7" style="enable-background:new 0 0 609.4 793.7;" xml:space="preserve" preserveAspectRatio="xMidYMid meet">
<style type="text/css">
	.st0{fill:#602346;}
</style>
<g>
	<path class="st0" d="M318.9,342.8c0.1,0.1,0.2,0.2,0.3,0.3l39.1-94.6l-23.3,5.1l-7.4,17.4l-65.9,13.9l-5.7-13.7l-2.9,0.6l24.7,57.7
		C293.2,330.8,306.6,334.4,318.9,342.8 M326.2,274.2l-22.8,53.6c-12-1.3-24.1-0.7-24.1-0.7l-16.6-39.8L326.2,274.2z"/>
	<path class="st0" d="M373.4,595.7c2.6-4.1,4.9-8.3,7.2-12.6l-41.2-96.4l-5.5-13c-2.4,3.5-4.9,6.8-7.6,9.9l4.6,11.1L373.4,595.7z"/>
	<polygon class="st0" points="101.9,281.5 101.9,243.9 100.3,243 91,267.4 94.6,273.6 	"/>
	<path class="st0" d="M510.2,437.7l-2.3-0.5c-0.2,8.4-0.5,16.7-1,25l-34.8-6c0.7-8.6,1.2-17.2,1.3-26l34.5,7
		c0.1-0.8,0.1-1.6,0.1-2.5l-32.4-7.4l17.9-1.4l14.5-4l1.7-0.5l1.9,0.5l27.1,6.8l-32.1,6.3l2,3.5l3-1.1l36.1-8.3l0.3-23.4l-36.7-9.8
		l-0.2-0.1c-0.1-6.7-0.4-13.4-0.8-19.9l14.7-6.6l19.5-12.3l-2.6-24l-37.7-14.6l-0.2,0.1c-0.3-1.4-0.5-2.7-0.7-4l11.8-8.6l19.8-22.1
		l-8.9-22.6l-38.6-16.8l-5.9,2.5l3.5-5.2l36.2-7.5v-25.7l-19-9.9V58.8v-0.2L469,36.4l-28.8,10.4v33.4l-33.8-21.2l-27.5,9.9v143.8
		l-41.6,9.9V198l22.5-6.4c13.7-4.1,14.3-11.8,14.3-16.2v-56c0-12.5-7.5-16.5-7.5-16.5l-17.7-10.3c-14.3-8.5-23.7-4.4-23.7-4.4
		L280.7,104v26.6l-5.6-2.8V84.7l-67.6-35.1v3.5l19.6,10.2v50.1l-19.6-9.5V53.1h-0.1v-3.5l-27.6,11.5v52.6l25.6-9v4.9l-25.6,9v54.2
		l25.6-7.9v4.9l-25.6,7.8V233l25.6-6.5v4.8l-25.6,6.6v53.5l27.6-5.8v-51.1h0.1v-3.6l16.2,7.8v11.1L214,252v23.7l268.4-60.5
		l33.8,16.1l-33.8,7.1l-25-12.1l-80.3,17.9c2.3,4.2,4.5,8.6,6.6,13c0.2,0.6,0.5,1.2,0.8,1.7l-2.8,0.5h-0.1c-0.1-0.3-1.2-2.8-1.9-4.1
		l-42.2,99.8l-3.2-0.7l6.2-14.7l23-54.3l5.8-13.8l3-7.1l1.5-3.4l4.3-9.7c-1.5-2.7-2.8-5.1-3.6-6.6l-12.1,2.5l-7.4,17.7l-1.3,3.4
		l-2.4,5.7l-0.6,1.5l-22,53.3l-6.7,16.2l-1.1,2.7l-1.3,3.2l-1.5-0.3l-1.9-0.5l1.9-4.6c-11.6-8.3-25.4-13.5-40.2-14.9
		c-1.3-0.1-2.6-0.2-3.9-0.3l-10-24l-14.4-34.1l-10.6,2.4l8.4,20.1c-1.3-1.6-2.9-2.5-4.8-2.5h-0.3l-0.2-0.7l-6.8-16.1l-21.3,4.7v8.5
		l8.8,20.8c-1.2,1.7-1.9,3.7-1.9,5.9c0,3.7,2,7,4.9,8.8v21.8l-20.2,3c-0.3,0-0.6,0.2-0.9,0.3l-6.1,3.1l-18.7,3.1v6.5l-5,2.6v-8.2
		l-21.1,3.4v15.5l-5,2.6v-17.3l-18,2.9v23.5l-5.1,2.5v-25.2l-20.3,3.3v32.3l-3.6,1.8v-50.1v-9.5v-28.7l-10.8-3.8l-13.7,0.3
		l-5.5,21.6l10.6,9.8l17.9,9.6c-1.1,7.4-2.1,14.9-3,22.6l-12.3-1.6l-19.9,3.8l-2.1,20.9l18.7,10l7.9,1.4L68,419.3
		c-1.3,0.7-2,2.2-1.6,3.6c0.4,1.4,1.8,2.3,3.1,2.1l24.6-2.6c-0.1,2.7-0.2,5.5-0.2,8.2l7.2-8.7l23.3,29.3l-0.2,145
		c1.7,4.1,3.5,8.1,5.5,12l-5.6,0.1l0.1-12.1c-1-2.1-1.9-4.3-2.8-6.4c-0.6-1.5-1.2-2.9-1.8-4.3v-3.4l0.2-129.6l-19-24.3l-18.6,22.5
		l-0.2,26.7l13.5,2.1c0.7,7.2,1.4,14.3,2.4,21.2l2.4,19.3l3.9,15.4c0.9,4.1,1.9,8.1,3,12.1l-20.8-0.9l17.8-11.3
		c-2.6-11.2-4.6-22.7-6.3-34.7l-16,10.4l0,38.6l26.2,1.3c0.7,2.5,1.4,4.9,2.1,7.4l-15.8,16.5l-8.2,16.7l8.6,20.1l24.7-0.1l0,23.2
		l4.5-9.8v0v-13.4l7.2-0.1l1.2,0l-0.7,1l-7.7,12.5v20.3c-1.5-0.5-2.9-0.9-4.5-1.3v-9.2l-3.8,8.4c-4.7-0.9-9.8-1.4-15.2-1.4
		c-6.8,0-13.1,0.7-18.7,2.2l0.2-94.2l-3-0.1l-1.4-0.4l-0.3,96c-9.6,3.2-15.9,8.3-15.9,14c0,9.6,17.5,17.4,39.1,17.4
		c16.2,0,30.1-4.4,36.1-10.6l25.1-0.9l-5.3,13.5l-0.3,23.1l10.8,10l36.1-3.1l-0.2,0.8l1.6,27.9l14.3,7.1l34.9-3.6l4.8,14l16.5,2.8
		l40.5-4l0.5,1.3l0.2,0.6l0.6,1.3l14.6-0.2l25.1-3.5l16.9-5l2.5-11.3l34.7-3.7l17.1-12.9c23.1-2.1,40.5-11.1,40.5-21.8
		c0-2.6-1-5.1-2.9-7.4l12.3-14.3l-6.1-25.8l-7.1-11.5l36.2-1.4l10.6-18.2l-9.8-23.5l-12.9-16c0.9-2.7,1.7-5.5,2.6-8.2l35.1,1.2
		l5.5-22.4l-13.9-16.1l-14.8-11.5c1.2-6.7,2.3-13.5,3.3-20.3l11.6,2.1l23.9-2.2l4.1-20.9l-18.7-12.4l-16.9-6.6
		c0.5-8.4,0.9-16.9,1-25.5L510.2,437.7z M511.2,398.6l33.9,9.2l-0.3,18.7l-33.3-7.8l0,0l-0.6-20.1L511.2,398.6z M440.1,125.3
		l-31.7-60.4l31.7,19.2V125.3z M406.3,129.1l33.8,68.3v0.5l-33.8,8V129.1z M308.1,124.2l9.7,4.8v21.2c0,1.3-1.2,2.8-2.6,3.2
		l-7.1,2.1V124.2z M329.8,195c5.6,2.6,4.9,7.9,4.9,7.9v20.2l-26.7,6.3v-43.7C314.5,188.5,325.9,193.2,329.8,195 M335.4,176
		c10.4-3.4,10-14.1,10-14.1s0.2-56.8,0.2-62c0-5.1-2.8-7.3-2.8-7.3s12.2,7,20.7,11.6c8.6,4.7,7.9,16,7.9,16v55.1
		c0,9.6-12.1,13.6-12.1,13.6l-22.4,6.5L311.1,184C311.1,184,324.9,179.4,335.4,176 M315.2,119.1L315.2,119.1
		c1.4-0.3,2.6,0.4,2.6,1.8v5.3l-9.7-4.8v-0.2L315.2,119.1z M272.5,126.5l-16.1-8V78.6l16.1,8.4V126.5z M243.2,117.5V71.7l10.6,5.5
		v40l-4.1-2L243.2,117.5z M229.9,64.7l10.7,5.6v48.1l-1.9,0.6l-8.8-4.3V64.7z M207.5,108.7l25.9,12.4l-9.7,3.5v47.6l-16.2-7.9v-3.3
		l-0.1,0v-48.4h0.1V108.7z M207.5,225.9v-3.3h-0.1v-49.9l0.1,0v-3.6l16.2,7.7v56.9L207.5,225.9z M249.7,119.1l31.1,15.5v101.4
		l-31.1,7.4V119.1z M469,191V41.1l30.1,19.5v135.9l-16.7-8.8L469,191z M482.4,190.6l35.5,18.6v20.7l-35.5-17.7V190.6z M85.1,475.1
		l9.9-1.7l0.4,3.1L85.1,475.1z M119.7,608.5l-21.1,0.4l14.6-10.6l6.5-6.8L119.7,608.5z M482.9,498.6l19.9,3.6
		c-0.9,7-2.1,13.8-3.4,20.6l-37.1-3.4c1.9-8.3,3.6-16.9,5-25.6L482.9,498.6z M451.7,577.8L451.7,577.8L451.7,577.8L451.7,577.8
		v-20.6c-1.5,4.5-3,8.9-4.6,13.2v7.1l0,0v0.1v-0.1l-2.7-0.2c1-2.3,1.8-4.6,2.7-7V430L423,397.2l-3.5-4.7l-3.8,5.9L405,415l11.2-0.9
		c0,1.3,0.1,2.6,0.1,3.9v0.5l-14.3,1.3l-6.6,10.1v2.7l20.7-1.8c-1.2,41.4-8.4,80.6-19.9,114.8l0.9,112.9c-0.6,0.8-3.8,4.4-4.6,5.3
		l0,0l0,0l0,0l-0.8-105.5c-2.3,6-4.8,11.8-7.4,17.4l-40.3-94c11.2-13.2,19.3-29.1,23-46.7l23.8-2v-3.1l6.4-9.8l-72.8,6.1
		c-0.9,8.2-2.7,16-5.4,23.2c-1.1,2.8-2.2,5.5-3.5,8.1l3.5,8.4l5.8,13.9c2.7-3.1,5.1-6.5,7.4-10.1c0.8-1.2,1.5-2.4,2.3-3.6
		c5.2-8.8,9.2-18.6,11.8-29l3.6-0.3c-2.9,12-7.5,23.3-13.7,33.2l5.9,13.8l40.6,95.1c0.1-0.1,0.2-0.3,0.2-0.3l-0.2,0.4l-0.1,0
		c-3.5,7.4-7.2,14.3-11.2,20.9l-0.3-0.6l-43-102.5l-6-14c0,0,0,0,0,0l-3.3-7.9l-5.6-13.4c0,0-5.7-0.9-10.8,2.7
		c-3.7,2.6-5.8,5.9-6.8,7.6c-2.1-2.6-4.5-5-7.1-7.1c9.9-8.5,17.1-21.8,19.6-37.3c0.3-1.5,0.5-3,0.7-4.5c0.2-2.6,0.3-5.2,0.3-7.8
		c0-5.2-0.5-10.1-1.4-14.9l11.4-1.2c0,0.3-0.2,0.6-0.3,1c-1.2,3.2-2.7,9.6,0,15.7c0.8,2.1,2.2,4.1,4.3,6l46-3.9l30.9-2.6l15.4-23.7
		l1.7-2.5l4.6-0.5l2.8,3.8l27.2,37.4v127.4c0.4-1.3,0.9-2.6,1.3-4l17.6,13.5l17.1,4.4c-0.8,2.9-1.7,5.8-2.7,8.6L451.7,577.8z
		 M405.2,676.6c-2.8,0.3-5.5,0.7-8.1,1.2l-0.2-13.7L405.2,676.6z M382.1,677.6l10.3-11.5l0,11.5H382.1z M389.1,679.8
		c-4.1,1.2-7.7,2.7-10.9,4.4l5-4.4H389.1z M194,569.2c0.2,0,0.3,0,0.5,0c0.5,0.1,0.9,0.2,1.4,0.2c0.9,0.1,1.9,0.2,2.8,0.2
		c4.4,2.4,9,4.3,13.9,5.9c1.2,0.3,2.4,0.7,3.5,1c1.8-0.6,3.9-1.7,6-3.7c2-2,3.8-4.8,5.2-9c4.8-14.7,4-12.9,10-16.7
		c3.8-2.4,3.7-6.3,4.7-10.7c1.7,0,3.3-0.1,5-0.1c-0.7,2.2-1,4.3-1,6.2c0,5.5-5.8,5.8-9.2,7.7c-3.5,2.1-2.3,5.2-3.5,9.2
		c-1.2,4.1-4.6,9.5-6,12.1c-0.2,0.6-0.7,1.1-1.2,1.7c-1.3,1.7-3,3.5-4,4.6c2.5,0.4,5.1,0.8,7.7,1c1.3-1.3,3.3-3.2,5.1-5.2
		c2.8-2.9,5.6-6,6.5-8c2-4.3,2-7.2,10.6-11.2c14.1-5.8,7.2-14.4,11.5-18.4c0.2-0.2,0.4-0.4,0.6-0.6c1-0.1,2-0.1,2.8-0.2
		c-1.4,2.3-0.9,4.6-1.8,7c-1.3,3.3-2.1,8.7-5,10.5c-2.9,1.8-4.7,5.6-7.8,6.9c-3.1,1.1-5.4,3.2-6.8,7.3c-0.7,2.1-4,4.5-6.5,6.8
		c-2.2,2-3.7,4.1-1.8,5.6c0.7,0,1.3,0,1.9,0c28.6-0.8,53.9-17.3,62.2-43.5c0.5-1.4,0.8-2.9,1.2-4.4c-8.1,23.9-31.2,39.3-58.5,42.1
		c0.9-1.2,1.9-2.4,2.7-3.5c2.9-4.1,9.3-8.6,12.7-12.3c3.6-3.7,5.5-8.2,7.6-11.1c2-2.8,0.9-7.9,4.9-11.6c1.7-0.2,3.4-0.3,5-0.5
		c-0.8,2.6-1.8,4.4-4.2,9c3.5-3.4,5.7-5.8,7.2-9.3c1.6-0.3,3.2-0.5,4.8-0.7c-1.8,7.1-4.2,13.8-7,18.3c4-4.5,7.3-11.3,9.5-18.7
		c12.2-1.9,20.3-4.7,21.8-7.8v0.1c-4.3,33.3-34.1,59.1-70.3,59.1C221.8,584.4,206.2,578.7,194,569.2 M171.9,463.2
		c-0.1-4-0.1-8.5,0.1-13.4l4.2-0.3c0,3-0.2,12.6,0.5,21.8c0.2,2.1,0.4,4.2,0.6,6.2c-1.3,1.8-2.5,3.6-3.5,5.5
		C173.2,479.8,172.2,473,171.9,463.2 M179.9,450.8c0-0.6,0-1.1,0.1-1.6l24.5-1.8c-0.9,2.3-1.5,4.9-1.7,7.9
		c-8.6,4.6-16.2,10.7-22.2,17.9C180.3,468.1,179.7,457.4,179.9,450.8 M223.7,425.5c-0.2-0.8-1.1-1.5-2.3-1.5c-0.5,0-0.9,0.2-1.3,0.4
		c-0.3-0.6-1.1-1.2-2-1.2c-1.3,0-2.3,0.8-2.3,1.8c0,0.3,0,0.5,0.2,0.6c-5.2,0-10.1-0.5-13.5-2c-5.9-2.7-1.8-2.4-0.4-3.9
		c1.4-1.5-6.5-1.6-6.5-4.5c0-1.7,1.3-2.8,2.3-3.5l16.2-1.7c3.2,0.8,8.8,2.2,10.4,3.1c2.1,1.2,24.3,2.8,29.8,4
		c5.5,1.2,12.5,3.9,12.5,15.1c0,8.9-11.3,10.9-15.7,11.2v-3.3c0.2-0.3,0.3-0.6,0.3-0.9c0-0.2,0-0.4-0.1-0.5c1.2-0.1,2.1-0.7,2.1-1.5
		c0-0.2,0-0.3-0.1-0.4c0.3,0.1,0.6,0.2,1,0.2c1,0,1.7-0.5,1.7-1.1c0-0.5-0.4-0.9-1-1c0.2-0.2,0.4-0.3,0.4-0.6c0-0.4-0.4-0.8-1-0.8
		c-0.6,0-1.1,0.3-1.1,0.8c0,0.2,0.2,0.5,0.3,0.6c-0.7,0.2-1.2,0.5-1.2,1.1c0,0,0,0.1,0,0.2c-0.3-0.2-1-0.4-1.5-0.4v-1.5
		c1.3-1.5,1.4-2.8,0.8-3.9c0.9-0.2,1.5-0.7,1.5-1.4c0-0.9-1-1.5-2.3-1.5c-0.9,0-1.5,0.3-1.9,0.7l0,0c-0.6-0.3-1.2-0.5-1.8-0.7
		c0.5-0.3,0.8-0.5,0.8-0.7c0-0.3-0.2-0.5-0.6-0.7c0.3-0.2,0.5-0.4,0.5-0.7c0-0.6-0.8-1.1-1.7-1.1c-1,0-1.8,0.5-1.8,1.1
		c0,0,0,0.1,0,0.1c-0.3,0-0.6,0-0.8,0c-1.4,0-2.7,0.2-3.4,0.5c-0.4,0-0.7-0.1-1-0.1c0,0,0.2-0.2,0.2-0.3c0-0.6-1.1-1.1-2.3-1.1
		c-1.2,0-2.2,0.4-2.3,0.9c-0.2,0-0.4,0-0.7-0.1c0.3-0.3,0.5-0.6,0.5-1c0-0.9-0.9-1.7-2.1-1.7c-1,0-1.9,0.7-1.9,1.7
		c0,0.3,0.1,0.6,0.3,0.9c-0.6,0-1.2,0-1.7,0c-0.1-0.7-0.7-1.2-1.5-1.2c0.3-0.3,0.5-0.6,0.5-1c0-0.7-0.6-1.3-1.5-1.3
		c-0.8,0-1.5,0.6-1.5,1.3c0,0.7,0.6,1.3,1.4,1.3c-0.3,0.3-0.5,0.6-0.5,1v0.1C225.2,425.4,224.5,425.4,223.7,425.5 M173.3,542.7
		c-3.5-8-5.4-16.7-5.4-25.8c0-24.9,14.2-46.5,35.2-58.2c1.1,8.4,9,17.9,29.9,28.4c-0.8,0.8-3,3.4-3.8,5.5c-0.9,2.6-3.5,2.6-5.7,4.1
		c-2.3,1.4-6.5,5.5-5.8,9.8c0.5,2.6-0.2,4.4-1,5.9c-3.3,0.2-6.4,0.4-9.4,0.7c0.4-8.1,2-15.7,4.5-22.1c-3.9,6.1-6.5,13.8-7.1,22.3
		c-1.7,0.1-3.3,0.3-4.9,0.5c0.4-11.8,3.1-22.5,7.3-31.3c-5.6,8.4-9.3,19.5-9.7,31.6c-2.7,0.3-5.4,0.7-7.8,1.1
		c0.3-12.4,3.4-23.9,8.5-33.4c-7.1,9.2-11.5,21-11.7,34c-1.3,0.3-2.7,0.6-3.9,0.9v-0.4c0-13.3,3.8-25.5,10.3-35.4
		c-8.3,9.6-13.3,21.9-13.3,35.4c0,0.4,0,0.8,0,1.2c-6.9,1.9-10.8,4.1-10.8,6.6c0,2.7,4.8,5.1,12.9,7.1c2.2,7.7,6,14.7,11.2,20.5
		c-3.8-5.8-6.7-12.6-8.5-19.9c1.3,0.3,2.8,0.6,4.2,0.8c2,7.2,5.3,13.7,9.6,19.2c-3.1-5.6-5.4-11.9-6.8-18.7c2.5,0.4,5.4,0.9,8.3,1.2
		c1.7,6.3,4.2,12.1,7.5,16.9c-2.4-5-4.3-10.6-5.6-16.8c1.5,0.2,2.8,0.3,4.4,0.5c-0.3,1.6-0.2,3.7,0.4,6.4c2,8.3,4,9.2,0.3,12.9
		c-2.7,2.6-0.9,6.2,0.4,8.1c-8.7-2.4-18.7-6.1-25.5-11.5C177.9,548.1,175.3,545.3,173.3,542.7 M288.2,509.6
		c-0.1,1.8-0.1,3.7-0.3,5.6c-1.3-0.2-2.6-0.4-4-0.6c-0.2-2.8-1.2-6.4-1.6-7.6C284.4,507.8,286.4,508.8,288.2,509.6 M280.1,506
		c0.9,3.9,0.3,6.6-0.4,8c-0.8-0.1-1.7-0.2-2.6-0.3c-0.8-1.5-1-4.2,0.1-8.7l-0.5-0.3C277.8,505.1,279,505.6,280.1,506 M273,513.3
		c-1-0.1-2-0.2-3.1-0.4c0.6-4.6,2.7-7.7,1.3-10.4c1,0.4,2.1,0.8,3.2,1.2C274.1,505,272.9,509.3,273,513.3 M253.5,512
		c-0.8,0-1.7-0.1-2.5-0.1c-0.7-4.6-1-9.2,5.1-14.8c1.5,0.5,3.1,1.1,4.7,1.7c0.3,0.1,0.5,0.1,0.7,0.3
		C260.3,500.4,254.8,507.5,253.5,512 M214.4,520.3c2.7,5.5,0.1,7.5-3.4,8.9c-1,0.4-1.9,0.8-2.7,1.5c-0.8-4.3-1.3-8.9-1.3-13.7
		c2.2-0.1,4.6-0.3,7.1-0.4C213.8,517.7,213.8,518.8,214.4,520.3 M182.4,519.5c1.2-0.2,2.5-0.4,3.9-0.6c0.1,3.4,0.6,6.8,1.2,10.1
		c-1.4-0.2-2.7-0.4-4-0.6C183,525.5,182.6,522.5,182.4,519.5 M180.6,528c-6.2-1.2-10-2.6-10-4.1c0-1.3,3.3-2.6,8.9-3.7
		C179.7,522.7,180.1,525.4,180.6,528 M189.4,518.6c2.4-0.3,5-0.6,7.8-0.8c0,4.3,0.4,8.5,1.2,12.5c-2.8-0.3-5.5-0.6-8-0.8
		C189.9,525.9,189.6,522.2,189.4,518.6 M199.6,517.5c1.6-0.2,3.2-0.2,4.8-0.3c0,4.8,0.7,9.3,1.9,13.5c-2-0.1-3.9-0.2-5.8-0.4
		C200,526.2,199.6,521.9,199.6,517.5 M246.7,527.8c4.2-4.4,4.9-8,4.8-11.6c0.8,0,1.7,0,2.5,0.1c1.3,3.2,2.5,6.5-0.7,8.9
		c-1.6,1.3-3.2,3.6-4.5,6.3c-1.6,0.1-3.3,0.1-5,0.1C244.6,530.4,245.4,529.1,246.7,527.8 M270,517.7c-0.1-0.3-0.1-0.5-0.1-0.7
		c1.3,0.1,2.5,0.2,3.8,0.2c0.2,0.4,0.4,0.9,0.6,1.2c2.5,3.4,2.1,8.8-1.4,12.3c-1.6,0.1-3.3,0.2-4.9,0.3
		C269.9,527.5,270.9,523.1,270,517.7 M280.3,530.1l1-3.6l0.1-6.3c0.4-0.6,0.9-1.4,1.7-2.3c1.6,0.2,3.1,0.3,4.5,0.5
		c-0.4,3.6-1.1,7.4-1.9,11.2C284,529.7,282.2,529.9,280.3,530.1 M290.4,518.8c10.4,1.4,16.7,3.1,16.7,5c0,2.2-7.1,4-18.8,5.4
		C289.2,525.9,289.9,522.2,290.4,518.8 M290.7,515.7c0.1-1.6,0.2-3.1,0.3-4.6c1.4,0.9,2.9,1.7,4,2.4c2.8,1.9,5.6,3.7,7.8,5.4
		C299.8,517.7,295.6,516.6,290.7,515.7 M305.2,493.9c-5.9-3.8-13.5-7.8-22.9-11.9c-2.3-5-5.8-9.5-10.2-13.3
		c3.1,3.8,5.3,7.5,6.9,11.9c-2.4-1-4.9-2-7.5-3c-0.3-0.1-0.6-0.2-0.8-0.3c-1.9-3.8-4.7-7.2-8.3-10.3c2.7,3.2,4.6,5.7,5.9,9.3
		c-41.5-15.9-43.6-20.7-41.9-25.6c0,0,0.1-0.1,0.1-0.1c0.9-0.1,1.8-0.3,2.7-0.4v-3.1v-17.3l3.9-0.4v3.5c0,0.6,0.4,1.1,1,1.1
		c0.6,0,1.1-0.5,1.1-1.1v-3.7l5.8-0.4c2.7,0.6,5.1,1.4,6.6,2.1V447v3.2c0.9,0.1,1.8,0.2,2.7,0.3
		C275.7,454.5,296.7,471.4,305.2,493.9 M247.6,414.1c-0.6-0.1-1.2-0.2-2-0.3c-4-0.6-7.5-1.1-10.4-1.5v-4.4l12.4-1.3V414.1z
		 M233.2,412c-1.5-0.2-2.8-0.4-3.9-0.7v-2.9l3.9-0.4V412z M225.8,410.8c-2.7-0.5-4.4-0.8-5.7-1.3l5.7-0.6V410.8z M225.8,445.8
		c-1.5,2-4.2,6.5-2.1,10.3c2.2,5.5,12,10.9,48.7,24.8c17.3,6.6,58,20.5,49.6,47.3c-1.5,4.8-8.4,9.7-12.9,11c0.1-0.3,0.2-0.6,0.3-0.9
		l-0.4,0.5c0.2-0.8,0.7-2.8,1.2-4.8c0.5,0,1.1-0.1,1.5-0.6c0.9-0.6,1.2-1.6,0.8-2.2c-0.4-0.4-1-0.5-1.7-0.2c0.3-1.3,0.5-2.4,0.5-2.6
		c0-0.2,0-0.5-0.2-0.9c0.8,0.5,1.5,0.8,2,0.4c0.3-0.2,0.4-0.7,0.2-1.3c0,0.1,0.1,0.1,0.1,0.2c0.5,0.7,1.6,0.7,2.4,0.1
		c0.8-0.6,1-1.7,0.5-2.4c-0.5-0.7-1.6-0.7-2.4-0.1c-0.6,0.4-0.8,1.1-0.8,1.6c-0.2-0.4-0.4-1-0.9-1.5c-1-1.3-2.3-1.9-2.9-1.6
		c-0.8-1.5-2.2-3.2-4-5.1c0,0,0.1,0,0.2-0.1c1.1-0.8,1.3-2.7,0.2-3.9c-1-1.3-2.8-1.6-3.9-0.7c-0.4,0.2-0.6,0.7-0.7,1.1
		c-0.9-0.7-1.9-1.5-2.9-2.2c0.5-0.1,1-0.3,1.5-0.7c1.4-1.1,1.7-3,0.8-4.4c-1.1-1.2-3-1.4-4.4-0.3c-1.1,0.8-1.5,2.1-1.2,3.2
		c-1.3-0.8-2.8-1.7-4.4-2.6c0.2-0.4,0.2-0.9,0.1-1.3c0.4-0.1,0.8-0.2,1.1-0.5c0.5-0.5,0.8-1.1,0.9-1.9c0.6,0.3,1.2,0.3,1.6,0
		c0.6-0.4,0.6-1.5,0-2.2c-0.6-0.8-1.5-0.9-2.1-0.4c0,0,0,0.1-0.1,0.2c-0.1-0.2-0.2-0.3-0.4-0.6c-1.3-1.7-3.5-2.2-4.8-1.2
		c-1.1,0.9-1.2,2.6-0.5,4.1c0,0,0,0-0.2,0.1c-0.4,0.3-0.5,0.7-0.6,1.2c-2.5-1.3-5.2-2.5-8.3-3.8c0.2-1.2-0.5-2.8-1.8-3.9
		c-1.7-1.7-4.2-2.2-5.4-0.9c-0.4,0.4-0.6,1-0.6,1.7c-0.8-0.3-1.7-0.7-2.5-1c0.4-0.6,0.5-1.4,0.2-2.1c0.1-0.1,0.3-0.2,0.4-0.2
		c1.3-0.9,1.3-2.9,0.2-4.2c-1.1-1.4-3-1.8-4.1-0.9c-1.2,1-1.4,2.8-0.3,4.2c-0.4,0.4-0.6,1.1-0.6,1.7l0,0c-0.6-0.3-1.2-0.5-1.7-0.6
		c0.2-1.3-0.6-3-2.1-4.2c-0.8-0.5-1.6-1-2.4-1.1c0,0,0.1,0,0.2,0c0.6-0.5,0.7-1.4,0.1-2.2c0,0,0,0-0.1,0c0.1,0,0.2,0,0.2-0.1
		c0.9-0.7,0.9-2.2,0-3.3c-1-1.2-2.4-1.5-3.3-0.8c-0.9,0.7-1,2.2-0.1,3.4c0.3,0.3,0.6,0.5,0.8,0.7c-0.4,0.5-0.3,1.3,0.2,1.9
		c0.2,0.2,0.4,0.3,0.6,0.5c-0.6,0.1-1.1,0.3-1.5,0.8c-0.3,0.4-0.5,1-0.4,1.6c-0.7-0.2-1.3-0.5-2-0.8c0.3-1.4-0.9-3.3-2.8-4.6
		c-1.2-0.7-2.3-1.1-3.4-1.2c0.3-0.2,0.8-0.4,1-0.8c0.7-1.1,0.2-2.6-1-3.4c-1.3-0.8-2.9-0.6-3.5,0.5c-0.7,1.1-0.2,2.6,0.9,3.4
		c0.4,0.2,0.7,0.3,1.1,0.4c-0.5,0.2-0.9,0.4-1.2,0.8c-0.2,0.3-0.2,0.6-0.2,1c-1.5-0.7-2.9-1.4-4.3-2c0-1-0.5-2.2-1.4-3.2
		c-0.8-1.1-1.9-1.9-2.9-2.2c1.2-0.9,1-2.8-0.1-4.3c-0.8-1-2.1-1.6-3.1-1.5c-0.1-0.2-0.1-0.2-0.2-0.3c-0.4-0.6-1.1-0.9-1.7-0.8
		c0-0.6-0.2-1.3-0.8-1.9c-1-1.3-2.6-1.7-3.4-1.1c-1,0.7-0.9,2.4,0.1,3.6c0.8,1.1,2,1.6,2.9,1.3c0.1,0.2,0.2,0.6,0.4,0.8
		c0.2,0.3,0.6,0.5,0.8,0.6c0,0.8,0.3,1.7,1,2.5c0.6,0.8,1.3,1.3,2.2,1.5c-0.3,0.4-0.4,1-0.3,1.7c-2-1.1-3.9-2.2-5.6-3.2
		c-0.2-1-0.7-2-1.4-3.1c-1.6-1.9-3.5-2.9-4.5-2.1c-0.3,0.2-0.4,0.6-0.4,1c-2.3-1.7-4.4-3.4-6-4.9c0.4-1.1,0-2.9-1.3-4.5
		c-1.3-1.6-3-2.5-4.2-2.2c-0.5-0.9-0.8-1.6-1.1-2.5c0.7-0.3,1.3-0.8,1.7-1.6c0.8-1.6,0.3-3.4-0.9-4c-0.5-0.2-1.1-0.3-1.7-0.1
		c0.1-1.3,0.3-2.6,0.6-3.7c0,0.9,0.3,1.7,1,2c1.1,0.6,2.7-0.3,3.5-1.9c0.8-1.6,0.5-3.3-0.6-3.8c-1.1-0.5-2.2,0.1-3,1.3
		c0.8-2,1.9-3.9,3.3-5.5c0.2,0.7,0.6,1.3,1.2,1.6c1.3,0.6,3-0.2,3.7-1.7c0.7-1.5,0.5-3.2-0.8-3.9c3.6-2.9,7.7-4.9,11-5.9V445.8z
		 M162.3,542.1c-0.5,0-1,0.2-1.2,0.5c0-1,0.1-1.8,0.2-2.6c0.2,0.3,0.5,0.5,0.7,0.5c0.5,0,0.9-0.7,0.9-1.6c0-0.7-0.3-1.4-0.7-1.5
		c1.5-3.4,4.1-4.7,4.1-4.7s0.1,0.4,0.2,1.1c-0.6,0-1.1,0.7-1.1,1.6c0,0.9,0.5,1.6,1.2,1.6c0.3,0,0.5-0.2,0.8-0.5
		c1.5,4.4,5,11.6,12.3,16.4c15.3,10.3,36,13,36,13c-3.9,0.8-7.9,1.2-12.2,1.2c-0.3-0.7-1.5-1.2-2.9-1.2h0v-0.1c0-1-0.7-1.7-1.6-1.7
		c-0.8,0-1.3,0.6-1.5,1.2c-0.2,0-0.6,0-0.9,0c-1.3,0-2.5,0.2-3.4,0.5c0.2-0.3,0.3-0.6,0.3-1c0-0.9-0.6-1.6-1.2-1.6
		c-0.5,0-0.8,0.3-1,0.7c-0.5-0.2-1-0.3-1.6-0.3c-0.8,0-1.5,0.2-2.1,0.6c-0.4-0.5-1.2-0.8-2.1-0.9c0.2-0.4,0.3-0.9,0.3-1.5
		c0-1.4-0.6-2.5-1.2-2.5c-0.6,0-1.3,1.1-1.3,2.5c0,0.1,0.1,0.2,0.1,0.3c-0.5-0.3-1.2-0.5-1.9-0.5c-0.6,0-1,0.1-1.4,0.2
		c0.1-0.4,0.2-0.8,0.2-1.3c0-1.6-0.9-2.9-2.1-2.9c-0.7,0-1.2,0.4-1.6,1c-0.3-0.4-0.8-0.6-1.3-0.6c-0.4,0-0.6,0.1-0.9,0.3
		c-0.3-0.3-0.6-0.5-1-0.5c-0.4,0-0.8,0.2-1.1,0.5c0-0.9-0.7-1.6-1.4-1.7c0-0.4,0.1-0.6,0.1-0.9c0-1.2-0.4-2.1-0.9-2.8
		c0.6-0.3,1-1,1-1.9c0-1.1-0.6-2.1-1.3-2.1c-0.8,0-1.4,0.9-1.4,2.1c0,0.4,0.1,0.8,0.3,1.1c-0.7,0-1.3,0.4-1.6,1.2
		c-0.2-0.2-0.5-0.3-0.7-0.3c-0.6,0-0.9,0.3-1.2,0.7c0-0.1-0.1-0.2-0.2-0.2c0.4-0.5,0.6-1.3,0.6-2.2c0-0.6-0.1-1.1-0.3-1.5
		c0.8-0.2,1.5-0.9,1.5-1.9c0-1.1-0.8-2-1.7-2c-0.9,0-1.8,1-1.8,2c0,0.3,0,0.5,0.2,0.8c-0.5,0.1-0.8,0.4-1,0.7
		c-0.3-0.7-0.6-1.5-0.7-2.3c-0.1-0.5-0.3-1.1-0.3-1.5c0.3,0.2,0.6,0.3,1,0.3c1,0,1.8-0.9,1.8-1.9S163.3,542.1,162.3,542.1
		 M235.1,587.4c0.9,0,1.6,0,2.6,0c-4.6,9.7-8.7,26.3,10.4,38.5c14.8,9.5,32.6,14.7,48.6,14.7c25.7,0,46.4-10.9,46.4-10.9
		s-28,20.4-64.1,11.9C215.1,626,231.8,593,235.1,587.4 M284.4,636.2c-40.2-5.4-51.8-28.5-46.4-42.4c1.3-3.3,2-5.2,2.6-6.5
		c30.4-0.7,56.3-18.8,67-44.3c2.7-0.8,8.5-3.1,13-8l27.9,68.2c0,0,4,12.3-3.8,19.7C333.9,633.3,307.7,639.4,284.4,636.2
		 M458.5,301.2l41.3,15.8l0.3-0.2c0.1,0.6,0.2,1.2,0.3,1.8l-13.4,0.9l-22.3,7.9C462.9,318.4,460.8,309.7,458.5,301.2 M491.2,391.6
		h-18.4c-0.5-8.7-1.2-17.3-2.1-25.8l35.9,10.6c0.5,6.1,0.7,12.3,0.9,18.6L491.2,391.6z M539.9,335.1l1.4,19.8l-33.6-10.8l-0.2-0.1
		l-1.5-12.6l-1.1-10.1L539.9,335.1z M504.2,347.1l0.7-0.5l3,1l30.5,10.2l-13.9,8.9l-14.4,5.8l-2.1,0.9l-1.5-0.4l-33.6-10.2l16.2-5.6
		L504.2,347.1z M524.5,263.6l6.4,18.7l-36.1-14.8l-5.2-19.3L524.5,263.6z M494,269.9l35.8,15.5l-17.3,19l-13.1,9.8l-38-15.7
		l19.3-13.9L494,269.9z M456,228.3l25.4,12.2l-6.2,8.9l-7.3,3l-20.3,14.5c-2.7-7.2-5.5-14.2-8.5-21L456,228.3z M345.5,345.5
		l34.8-82.4l5.6-1.2c14.2,31.7,23.9,69.9,28,111.4l-59.1-13.9C352.1,354.5,349,349.9,345.5,345.5 M266.1,340.3l-3.7,0.5l-8.1-20.4
		c0.8-1.5,1.2-3,1.2-4.8c0-0.3,0-0.5,0-0.7L266.1,340.3z M253,308.8c-1.1-1.3-2.6-2.4-4.3-3c0.6-1.3,0.8-2.7,0.8-4.2
		c0-0.6,0-1.1-0.1-1.7L253,308.8z M246.7,301.6c0,1.3-0.5,2.5-1.3,3.5c-0.2,0-0.3,0-0.6,0h-13.2c-0.2,0-0.4,0-0.6,0
		c-0.7-0.9-1.1-2.2-1.1-3.5c0-3.1,2.3-5.5,5.1-5.5h6.5C244.4,296.2,246.7,298.6,246.7,301.6 M223.9,315.6c0-4.1,4-7.5,8.8-7.5h11
		c5,0,8.9,3.4,8.9,7.5c0,1.6-0.6,3.1-1.6,4.3v-0.1c0,0-6.5-2.6-12.7-2.6c-6.2,0-12.5,2.6-12.5,2.6v0.4
		C224.6,319,223.9,317.4,223.9,315.6 M229.3,322.7c0,0,1.3-0.9,3.9-1.6v1.9c0,0.6,0.4,1.1,1,1.1c0.6,0,1.1-0.5,1.1-1.1v-2.2
		c0.9-0.2,1.9-0.3,3.1-0.3c5.8,0,9.3,2.1,9.3,2.1V343l-12.4,1.9v-3.3c0-0.6-0.5-1.1-1.1-1.1c-0.6,0-1,0.5-1,1.1v3.7l-3.9,0.5V322.7z
		 M69.3,422l136.8-69.7l63.4-9.4l47.9,10.9l4.4,1l1.1,0.3l5.6,1.3l0,0l114.9,27.1L69.3,422z M135.9,663.1c-0.7,1-1.7,1.9-2.8,2.8
		c-6.3,4.9-18.5,8-32.6,8c-20.4,0-37-6.8-37-15.2c0-8.4,16.5-15.2,37-15.2c5.1,0,10,0.4,14.5,1.2c1.6,0.3,3.1,0.7,4.6,1v2.5
		c-1.7-0.5-3.6-0.8-5.7-1.1c-3.9-0.6-8.2-0.9-12.8-0.9c-16.1,0-29.1,3.9-29.1,8.9c0,4.9,13,8.9,29.1,8.9c8.6,0,16.2-1.1,21.5-3
		c4.7-1.5,7.5-3.6,7.5-5.9c0-2-2.2-3.9-6-5.4V647c6.6,2.2,11.2,5.4,12.8,9c0.4,0.9,0.6,1.9,0.6,2.8
		C137.5,660.3,137,661.7,135.9,663.1 M110.1,654.6c-21.3-3.4-31.8,0.4-34.5,1.6c-0.2-0.4-0.4-0.8-0.4-1.2c0-3.8,11.8-7,26.2-7
		c4.9,0,9.5,0.3,13.4,1.1c1.8,0.2,3.3,0.5,4.8,0.9v6.3v3.6c-4.8,1.3-11.2,2-18.3,2c-8.5,0-16.1-1.1-20.9-2.7
		c5-3.9,24.7-2.6,28.6-2.8C113.1,656.2,110.1,654.6,110.1,654.6 M124.1,651.5c2.2,1.1,3.4,2.2,3.4,3.5c0,1.3-1.3,2.4-3.4,3.5V651.5z
		 M162.9,662.1l-24.3,1c0.8-1.3,1.2-2.6,1.2-4c0-1.6-0.6-3.2-1.5-4.6l1.7-2.1l8.2-12.4c5,7.1,10,13.8,15.4,20.1L162.9,662.1z
		 M203.8,705.3l-33.6,3.3l10.4-13.1l5.8-13.2c6.2,5.2,12.7,9.9,19.4,13.9L203.8,705.3z M253.3,737.5l-30.3,3.7l6-15.3l2.3-16.9
		c7.4,2.9,14.9,5,22.5,6.6L253.3,737.5z M276,754.6l4.4-15.2l0.3-20.9c0.5,0,0.9,0,1.4,0c7.6,0,15.1-0.7,22.6-2.1l2.6,18.7l6.8,15
		L276,754.6z M282.1,664.3c-100.9,0.4-153.6-113.3-147.7-246l13.3-1.6c-2.9,10.9,0.6,19.2,0.6,19.9l75.7-6.4
		c-2.5,0.9-5.8,2.3-9.1,4.6l-66.7,6.2c-0.2,4.1-0.3,8.3-0.3,12.5c0,29.3,4.6,57,12.5,82.1c-1.3,2.9-2.1,6.8-1.1,11.6
		c1.2,5.4,5.1,10,10.6,13.6c4.9,11.1,10.5,21.5,16.5,31.1l8.6-18.3c1.8,1.2,1.4,0.9,2.6,1.6l-8.4,20.8c0,0-2.2,8.2,5.9,16.4
		c3.4,3.5,6.2,3.6,8.1,2.9l13-31.4c0.8,0.3,1.7,0.5,2.6,0.7l-13.2,32.6c23.2,25.8,51.2,41.1,79,41.3c17.7,0.1,35-6.6,50.9-18.1
		c7.1-5.1,13.9-11.3,20.5-18.2C334.6,648.6,309.2,664.2,282.1,664.3 M359.1,706.1l-25.5,1.4c7.4-3.2,14.5-7.1,21.5-11.6L359.1,706.1
		z M349,752.3l-15.8,2.1l4.6-3.6l21.1-1.6L349,752.3z M371.6,744.9l-26.9,2.9l-5.5,0.5l-2.4,0.3v-21.4l-2.8-17.2l26.2-1.4l4.1,10.5
		l9.5,15.8L371.6,744.9z M408.8,730.3l-27.3,2.3l11.4-8.6l28.3-2.4L408.8,730.3z M390.1,716.9c1.4,0.3,2.9,0.7,4.4,1.1
		c1,0.2,2,0.4,3,0.6c3,0.6,6.2,1,9.5,1.3l-14.5,1L390.1,716.9z M465.5,697.7c0,10.8-21.5,19.5-47.8,19.5c-6,0-11.6-0.4-16.9-1.3
		c-1-0.1-2.1-0.3-3.1-0.5c-16.4-3.1-27.8-9.9-27.8-17.7c0-10.8,21.3-19.6,47.8-19.6c5.3,0,10.6,0.4,15.4,1.1
		c1.1,0.1,2.3,0.3,3.3,0.5c3.8,0.6,7.4,1.5,10.7,2.6v3.7c-3.6-1.3-8.2-2.3-13.3-3c-1.1-0.2-2.2-0.3-3.4-0.4c-3.9-0.4-8-0.6-12.3-0.6
		c-20.9,0-37.8,4.9-37.8,10.9c0,5.3,13.2,9.7,30.7,10.6c1.2,0.1,2.3,0.1,3.6,0.2c1.2,0,2.3,0,3.5,0c11.6,0,22.1-1.5,29.1-3.9
		c1.8-0.6,3.3-1.3,4.6-2.1v-3.7v-0.9V693v-2.6c0.8,0.4,1.7,1.2,2.3,2.5c0,0,0.3,0.8,1.1,0.5c0.7-0.2-0.3-3.1-3.5-5.4V688v-4
		C460.1,687.5,465.5,692.3,465.5,697.7 M438.7,676.8l-1.2,0.1l-0.7-2.4l-5-15.8l-13.4-24.5l28.7-0.9v26.6v5.5v11L438.7,676.8z
		 M447.1,678.6v1.4c-1.5-0.5-2.9-0.9-4.6-1.2L447.1,678.6z M427.2,690.6c-0.8-0.3-1.8-0.4-3.2-0.5c-1.6-0.2-3.4-0.3-5.5-0.3
		c-15.3,0-28.2,2.9-31.5,6.7c-1.8-1.1-2.7-2.2-2.7-3.5c0-4.8,15.1-8.8,33.8-8.8c3.7,0,7.2,0.2,10.6,0.4c1.2,0.1,2.4,0.2,3.4,0.3
		c6.3,0.8,11.5,2,15.1,3.6v9c-5.9,2.6-16.7,4.3-29.1,4.3c-0.5,0-1,0-1.5,0c-1.2,0-2.4,0-3.6-0.1c-6.5-0.2-12.4-1-17.1-2.1
		c-1.9-0.7-3.1-1.4-3.1-2.2c0-2.6,12.9-4.8,29.2-5.1c0.8,0,1.6,0,2.3,0c0.5,0,1,0,1.4-0.1C429.7,692.3,430.1,691.3,427.2,690.6
		 M463.1,688.4c-2.8-2.5-6.6-4.8-11.4-6.7v-3.2l20.5-0.7L463.1,688.4z M469.3,651.5l5,23.4l-22.6,1.2v-17.8v-5.8v-19.4l3.8-0.1
		l2.4-0.1l4.6,7.5L469.3,651.5z M498.7,635.4l-32.7,0.9l7.5-15.1l33.8-0.5L498.7,635.4z M499,597.7l8.1,20.6l-32.4,0.3l-2.8-4.5
		l-8.7-13.7l-11.4-13.3V630l0.1,0.4h-0.1V630l-4.6-3.7v4.2l-30.2,0.8c4.7-7.2,9.1-14.8,13.2-22.7l16.3,17.2l0.7,0.6v-44.6l4.6,5.4
		l0.2-5.9l33.9,1.4L499,597.7z M524.4,569.6l-32.3-0.7H492l5.1-18.1l0.2-0.6l31.1,2.4L524.4,569.6z M512.4,533.8l14.4,15.4l-29-1.5
		h-0.6l-2.6-2.5l-10.9-10.9L464.3,522l37.6,3.9L512.4,533.8z M517.7,502.6l-11.7-2.2l2.8-1.6l17.9,3.2L517.7,502.6z M539.7,500.9
		l-32.3-4.3l2.2-19.1l33.1,5.5L539.7,500.9z M524.5,470.6l13.9,8.8l-28.8-4.3l-15.3-11.8l15.9,2.2L524.5,470.6z"/>
	<polygon class="st0" points="397,420.1 401.9,419.7 405,415 400,415.4 	"/>
	<polygon class="st0" points="82.2,511.1 82.3,477.4 80.7,477.2 78,476.5 77.9,514.6 78.8,513.4 	"/>
	<path class="st0" d="M94,430.6l-3.6,4.5h3.6C93.9,433.6,93.9,432.1,94,430.6"/>
	<polygon class="st0" points="67.7,527.7 72.8,547.8 77.7,549.1 77.9,514.6 	"/>
	<polygon class="st0" points="90.3,435.1 89.1,435.1 63.5,451.2 63.9,473 78,476.5 78,450 	"/>
	<path class="st0" d="M391.6,558.2c1.5-4.2,3.1-8.4,4.5-12.7l-0.8-113l-4.7,0.4L391.6,558.2z"/>
	<polygon class="st0" points="174.9,63.2 153.8,71.9 153.8,122.9 174.9,115.5 	"/>
	<polygon class="st0" points="174.9,297.2 153.8,301.7 153.8,355.1 174.9,351.7 	"/>
	<polygon class="st0" points="174.9,239.1 153.8,244.5 153.8,296.8 174.9,292.4 	"/>
	<polygon class="st0" points="174.9,120.3 153.8,127.7 153.8,180.7 174.9,174.2 	"/>
	<polygon class="st0" points="174.9,179.1 153.8,185.5 153.8,239.7 174.9,234.3 	"/>
	<polygon class="st0" points="148.8,245.8 130.8,250.4 130.8,301.7 148.8,297.9 	"/>
	<polygon class="st0" points="148.8,187.1 130.8,192.6 130.8,245.6 148.8,240.9 	"/>
	<polygon class="st0" points="148.8,302.7 130.8,306.5 130.8,358.9 148.8,356 	"/>
	<polygon class="st0" points="148.8,129.5 130.8,135.9 130.8,187.8 148.8,182.3 	"/>
	<polygon class="st0" points="148.8,73.9 130.8,81.5 130.8,131 148.8,124.7 	"/>
	<polygon class="st0" points="125.8,251.7 105.5,256.9 105.5,307 125.8,302.7 	"/>
	<polygon class="st0" points="125.8,137.6 105.5,144.7 105.5,195.5 125.8,189.3 	"/>
	<polygon class="st0" points="125.8,307.6 105.5,311.9 105.5,363.1 125.8,359.7 	"/>
	<polygon class="st0" points="125.8,83.5 105.5,91.9 105.5,139.9 125.8,132.7 	"/>
	<polygon class="st0" points="125.8,194.1 105.5,200.4 105.5,252 125.8,246.9 	"/>
	<polygon class="st0" points="207.5,290.4 179.9,296.2 179.9,350.9 207.5,346.4 	"/>
	<path class="st0" d="M213,355.4l24.9,42.8l21.9-49.8L213,355.4z M225.8,356.7V371l-7.7-13.2L225.8,356.7z M237.5,391.2l-2.3-4v-2.1
		c0-0.6-0.5-1-1.1-1c-0.2,0-0.4,0.1-0.6,0.2l-4.2-7.4v-20.6l3.9-0.6v20.7c0,0.6,0.4,1.1,1,1.1c0.6,0,1.1-0.5,1.1-1.1v-21l12.4-1.9
		v14.8L237.5,391.2z"/>
	<path class="st0" d="M88.9,416.8l144.4-15.3l-72.8-21.3L88.9,416.8z M125.8,401.5l5.1-2.5v10.2l-5.1,0.6V401.5z M148.8,389.8l5-2.6
		v19.5l-5,0.6V389.8z M174.9,387.7l5,1.4v14.8l-5,0.5V387.7z M207.5,401v-3.8l9.5,2.8L207.5,401z"/>
	<path class="st0" d="M316.6,357.8l-47.2-10.7l-5,0.7l-20.8,47.3L316.6,357.8z M270.3,350.6l1.2,2.8c0,0,6.1-0.3,12.1,0.2l7.9,1.8
		c0.1,0.6,1,5.9,5.2,9l-7,3.5c-7.4-6.4-16.4-10.3-26.1-10.5l0.3-0.7l4.1-1.8c0,0-0.8-2.6-1.3-4.2l2.6-0.4L270.3,350.6z"/>
	<path class="st0" d="M208.9,356l-1.5,0.2l-41.8,21.4l67.5,19.7L208.9,356z M226.2,392.1l-18.8-5.5v-26.7L226.2,392.1z M174.9,376.4
		l5-2.6v4.6l-5-1.4V376.4z"/>
	<path class="st0" d="M322.3,359.1l-81.2,41.6L421,381.5L322.3,359.1z M297.3,375.5l15.2-7.8c2.4,4.1,4.5,8.6,6.3,13.4
		c0.9,2.6,1.7,5.2,2.4,7.9l-16.2,1.7C303.1,385.1,300.5,380,297.3,375.5 M337.1,365.8l4.1,0.9c3.5,5.8,6.4,12.3,8.4,19.2l-3.1,0.3
		C344.3,378.8,341.1,371.9,337.1,365.8 M360.8,371.1l40.8,9.3l-36.3,3.9C364.1,379.7,362.6,375.4,360.8,371.1"/>
	<path class="st0" d="M205,411.9c-1,0-1.9,0.7-1.9,1.4c0,0.8,0.8,1.4,1.9,1.4c1,0,1.8-0.6,1.8-1.4C206.9,412.6,206,411.9,205,411.9"
		/>
	<path class="st0" d="M308.8,513.3c0.9-0.6,1-1.7,0.5-2.3c-0.5-0.7-1.6-0.7-2.4-0.1c-0.8,0.6-1.1,1.7-0.5,2.4
		C306.9,513.9,308,514,308.8,513.3"/>
	<path class="st0" d="M308,518.1c0.1,0.2,0.3,0.3,0.6,0.5c-0.3,0.7-0.1,1.5,0.4,2.2c0.8,1.1,2.3,1.3,3.2,0.6
		c1.1-0.8,1.2-2.3,0.4-3.4c-0.4-0.4-0.8-0.7-1.3-0.8c0-0.5-0.1-0.9-0.4-1.4c-0.6-0.8-1.8-1-2.6-0.4
		C307.4,516.1,307.3,517.3,308,518.1"/>
	<path class="st0" d="M210.5,453.5c-1.4,0.6-1.9,2.4-1.2,4c0.7,1.6,2.5,2.4,3.8,1.8c1.3-0.6,1.9-2.4,1.1-4
		C213.5,453.7,211.8,452.9,210.5,453.5"/>
	<path class="st0" d="M215.2,459.5c-0.7,0.6-0.8,1.8-0.1,2.7c0.8,0.9,1.9,1.2,2.7,0.6c0.8-0.6,0.8-1.8,0-2.7
		C217.2,459.1,216.1,458.8,215.2,459.5"/>
	<path class="st0" d="M216.4,465.9c-0.9,0.7-0.7,2.4,0.4,3.8c1.1,1.5,2.7,2.1,3.6,1.4c0.9-0.7,0.7-2.4-0.4-3.9
		C218.9,465.8,217.3,465.3,216.4,465.9"/>
	<path class="st0" d="M240.4,478.6c0.6-0.4,0.6-1.4,0-2.2c-0.6-0.7-1.5-0.9-2.2-0.5c-0.6,0.5-0.6,1.4,0,2.2
		C239,478.9,239.8,479.1,240.4,478.6"/>
	<path class="st0" d="M249.5,479c0.5-0.5,0.5-1.3,0.1-2c-0.6-0.6-1.4-0.8-1.9-0.4c-0.5,0.4-0.5,1.3,0,1.9
		C248,479.2,248.9,479.3,249.5,479"/>
	<path class="st0" d="M272.5,490.5c0.4-0.3,0.4-1.1-0.1-1.7c-0.5-0.6-1.3-0.9-1.7-0.6c-0.4,0.4-0.3,1.2,0.2,1.8
		C271.4,490.6,272.1,490.8,272.5,490.5"/>
	<path class="st0" d="M289.6,496.3c0.3-0.2,0.4-0.7,0.1-1.1c-0.3-0.4-0.8-0.4-1-0.2c-0.3,0.3-0.4,0.8-0.1,1.1
		C288.8,496.5,289.3,496.6,289.6,496.3"/>
	<path class="st0" d="M282.7,498.9c1.1-1.1,0.8-3.2-0.7-4.5c-1.4-1.4-3.5-1.6-4.6-0.5c-1,1.2-0.8,3.2,0.7,4.5
		C279.6,499.8,281.6,500,282.7,498.9"/>
	<path class="st0" d="M235.9,421.8c0.6,0,1.2-0.4,1.2-0.9c0-0.5-0.6-0.9-1.2-0.9c-0.6,0-1.2,0.4-1.2,0.9
		C234.7,421.4,235.3,421.8,235.9,421.8"/>
	<path class="st0" d="M211,422.7c-0.5,0-0.9,0.4-0.9,0.7c0,0.4,0.4,0.7,0.9,0.7c0.5,0,0.9-0.3,0.9-0.7
		C211.9,423,211.5,422.7,211,422.7"/>
	<path class="st0" d="M246.9,421.2c0.6,0,1.1-0.4,1.1-0.9c0-0.5-0.5-0.8-1.1-0.8c-0.6,0-1,0.3-1,0.8
		C245.9,420.8,246.4,421.2,246.9,421.2"/>
	<path class="st0" d="M260.6,433.1c0.8,0,1.4-0.5,1.4-1.1c0-0.6-0.6-1.1-1.4-1.1c-0.8,0-1.5,0.5-1.5,1.1
		C259.2,432.6,259.9,433.1,260.6,433.1"/>
	<path class="st0" d="M255.4,430.5c-0.1,0-0.2-0.1-0.3-0.1c-0.6,0-1.1,0.4-1.1,1c0,0.5,0.5,0.9,1.1,0.9c0.5,0,0.9-0.3,1-0.7
		c0.4-0.1,0.7-0.3,0.7-0.7c0-0.3-0.3-0.6-0.8-0.6C255.7,430.3,255.6,430.4,255.4,430.5"/>
	<path class="st0" d="M254.4,426.7c0.6,0,1.2-0.4,1.2-0.9c0-0.5-0.6-0.9-1.2-0.9c-0.7,0-1.2,0.4-1.2,0.9
		C253.2,426.3,253.7,426.7,254.4,426.7"/>
	<path class="st0" d="M241.6,423.3c0.1,0.4,0.5,0.6,1,0.6c0.6,0,1-0.3,1-0.8c0-0.2-0.2-0.5-0.5-0.7c0,0,0-0.1,0-0.1
		c0-0.6-0.6-1.1-1.3-1.1c-0.7,0-1.4,0.5-1.4,1.1C240.5,422.8,241,423.2,241.6,423.3"/>
	<path class="st0" d="M227.8,419.6c0.6,0,1.1-0.4,1.1-1c0-0.5-0.5-0.9-1.1-0.9c-0.6,0-1.2,0.4-1.2,0.9
		C226.6,419.2,227.2,419.6,227.8,419.6"/>
	<path class="st0" d="M166.1,541.8c0.6,0,1-0.7,1-1.6c0-1-0.4-1.7-1-1.7c-0.5,0-1,0.7-1,1.7C165.1,541.1,165.6,541.8,166.1,541.8"/>
	<path class="st0" d="M173.2,556.6c0.8,0,1.4-0.7,1.4-1.6c0-0.9-0.6-1.6-1.4-1.6c-0.7,0-1.3,0.7-1.3,1.6
		C171.9,555.9,172.5,556.6,173.2,556.6"/>
	<path class="st0" d="M177,556.6c0.4,0,0.7-0.6,0.7-1.2c0-0.7-0.3-1.3-0.7-1.3c-0.4,0-0.8,0.5-0.8,1.3
		C176.2,556.1,176.5,556.6,177,556.6"/>
	<path class="st0" d="M234.1,435.4c-0.6,0-1,0.5-1,1.1v1.8c0,0.6,0.4,1,1,1c0.6,0,1.1-0.4,1.1-1v-1.8
		C235.2,435.9,234.8,435.4,234.1,435.4"/>
	<path class="st0" d="M234.1,440.5c-0.6,0-1,0.4-1,1v0.9c0,0.6,0.4,1.1,1,1.1c0.6,0,1.1-0.5,1.1-1.1v-0.9
		C235.2,440.9,234.8,440.5,234.1,440.5"/>
	<path class="st0" d="M234.1,444.7c-0.6,0-1,0.5-1,1.1v0.9c0,0.6,0.4,1,1,1c0.6,0,1.1-0.4,1.1-1v-0.9
		C235.2,445.2,234.8,444.7,234.1,444.7"/>
	<path class="st0" d="M234.1,335.2c0.6,0,1.1-0.5,1.1-1v-6.4c0-0.6-0.5-1.1-1.1-1.1c-0.6,0-1,0.5-1,1.1v6.4
		C233.2,334.7,233.6,335.2,234.1,335.2"/>
</g>
</svg>
