<?xml version="1.0" encoding="utf-8"?>
<!-- Generator: Adobe Illustrator 26.0.1, SVG Export Plug-In . SVG Version: 6.00 Build 0)  -->
<svg version="1.1" id="Capa_1" xmlns="http://www.w3.org/2000/svg" xmlns:xlink="http://www.w3.org/1999/xlink" x="0px" y="0px"
	 viewBox="0 0 498.4 406.9" style="enable-background:new 0 0 498.4 406.9;" xml:space="preserve">
<title>huronOS sync instances</title>
<style type="text/css">
	.st0-a{fill:#333333;}
</style>
<g>
	<rect x="396.2" y="284.3" class="st0-a" width="58.4" height="3.9"/>
	<rect x="396.2" y="292.3" class="st0-a" width="41.2" height="3.9"/>
	<rect x="396.2" y="300.3" class="st0-a" width="49.5" height="3.9"/>
	<rect x="396.2" y="323" class="st0-a" width="11.9" height="3.9"/>
	<rect x="396.2" y="330.9" class="st0-a" width="49.5" height="3.9"/>
	<rect x="371.4" y="373.3" class="st0-a" width="49.5" height="3.9"/>
	<rect x="409.4" y="380.4" class="st0-a" width="11.5" height="2"/>
	<rect x="396.2" y="308.2" class="st0-a" width="20.6" height="3.9"/>
	<path class="st0-a" d="M379.1,265.2v8.8v70.1v8.8h8.8h79.6h8.8v-8.8V274v-8.8h-8.8h-79.6H379.1z M467.6,344.1h-79.6V274h79.6V344.1z"
		/>
	<path class="st0-a" d="M489.6,357.8H365.9h-8.8v8.8v31.5v8.8h8.8h123.6h8.8v-8.8v-31.5v-8.8H489.6z M489.6,398.1H365.9v-31.5l123.6,0
		V398.1z"/>
	
		<ellipse transform="matrix(0.7071 -0.7071 0.7071 0.7071 -127.2853 448.3984)" class="st0-a" cx="477.6" cy="377.8" rx="4.5" ry="4.5"/>
	<rect x="217.6" y="284.3" class="st0-a" width="58.4" height="3.9"/>
	<rect x="217.6" y="292.3" class="st0-a" width="41.2" height="3.9"/>
	<rect x="217.6" y="300.3" class="st0-a" width="49.5" height="3.9"/>
	<rect x="217.6" y="323" class="st0-a" width="11.9" height="3.9"/>
	<rect x="217.6" y="330.9" class="st0-a" width="49.5" height="3.9"/>
	<rect x="192.9" y="373.3" class="st0-a" width="49.5" height="3.9"/>
	<rect x="230.8" y="380.4" class="st0-a" width="11.5" height="2"/>
	<rect x="217.6" y="308.2" class="st0-a" width="20.6" height="3.9"/>
	<path class="st0-a" d="M200.6,265.2v8.8v70.1v8.8h8.8H289h8.8v-8.8V274v-8.8H289h-79.6H200.6z M289,344.1h-79.6V274H289V344.1z"/>
	<path class="st0-a" d="M187.4,357.8h-8.8v8.8v31.5v8.8h8.8H311h8.8v-8.8v-31.5v-8.8H311H187.4z M311,398.1H187.4v-31.5l123.6,0V398.1
		z"/>
	<circle class="st0-a" cx="299.1" cy="377.8" r="4.5"/>
	<rect x="39" y="284.3" class="st0-a" width="58.4" height="3.9"/>
	<rect x="39" y="292.3" class="st0-a" width="41.2" height="3.9"/>
	<rect x="39" y="300.3" class="st0-a" width="49.5" height="3.9"/>
	<rect x="39" y="323" class="st0-a" width="11.9" height="3.9"/>
	<rect x="39" y="330.9" class="st0-a" width="49.5" height="3.9"/>
	<rect x="14.3" y="373.3" class="st0-a" width="49.5" height="3.9"/>
	<rect x="52.2" y="380.4" class="st0-a" width="11.5" height="2"/>
	<rect x="39" y="308.2" class="st0-a" width="20.6" height="3.9"/>
	<path class="st0-a" d="M110.4,352.9h8.8v-8.8V274v-8.8h-8.8H30.8H22v8.8v70.1v8.8h8.8H110.4z M30.8,274h79.6v70.1H30.8V274z"/>
	<path class="st0-a" d="M8.8,357.8H0v8.8v31.5v8.8h8.8h123.6h8.8v-8.8v-31.5v-8.8h-8.8H8.8z M132.4,398.1H8.8v-31.5l123.6,0V398.1z"/>
	<circle class="st0-a" cx="120.5" cy="377.8" r="4.5"/>
	<polygon class="st0-a" points="82.5,248.9 82.5,238.8 74.1,247.2 74.1,207.6 245.7,207.6 245.7,247.2 237.3,238.8 237.3,248.9 
		249.2,260.8 261,248.9 261,238.8 252.7,247.2 252.7,207.6 424.2,207.6 424.2,247.2 415.9,238.8 415.9,248.9 427.7,260.8 
		439.6,248.9 439.6,238.8 431.2,247.2 431.2,200.6 252.7,200.6 252.7,147.4 245.7,147.4 245.7,200.6 67.1,200.6 67.1,247.2 
		58.7,238.8 58.7,248.9 70.6,260.8 	"/>
	<path class="st0-a" d="M196.3,97.9l0,27.6c0,4.7,3.2,7.7,8.2,7.7c16.3,0,32.7,0,49,0c13.4,0,26.8,0,40.2,0c5.3,0,8.4-2.9,8.4-7.8
		v-20.3c0-24.2,0-48.5,0-72.7c0-1.6-0.5-2.8-1.8-3.9c-4-3.7-8.1-7.4-12.1-11.1c-3-2.8-6.1-5.6-9.1-8.4c-2.2-2-4.4-4-6.6-6L269.3,0
		h-66.7l-0.3,0c-4.1,1.3-6,4.1-6,8.6C196.3,38.4,196.3,68.7,196.3,97.9z M269.3,9.4l22.6,20.9h-22.6V9.4z M203.4,6.7h58.7l0,22.5
		c0,4.9,3.1,7.8,8.4,7.8c5.2,0,10.5,0,15.7,0l8.7,0v89.4h-91.6V6.7z"/>
	<path class="st0-a" d="M278.1,77.1c-0.2,0-0.5,0-0.8,0l-0.3,0l-46.6,0c-3.3,0-6.6,0-9.9,0c-1.5,0-2.8,0.7-3.4,1.9
		c-0.5,1-0.5,2.2,0.2,3.2c0.9,1.4,2.4,1.6,3.6,1.6c0,0,0,0,0,0c7.3,0,14.5,0,21.8,0l27.4,0c2.6,0,5.2,0,7.9,0c1,0,2-0.4,2.6-1.1
		c0.6-0.6,0.9-1.4,0.9-2.3C281.5,78.6,280.1,77.3,278.1,77.1z"/>
	<path class="st0-a" d="M277.8,96.1c-0.2,0-0.4,0-0.6,0l-10.3,0c-15.1,0-30.3,0-45.4,0c-0.6,0-1.3,0-2,0.2c-1.6,0.4-2.5,1.6-2.5,3.1
		c0,1.5,0.9,2.7,2.4,3.2c0.6,0.2,1.2,0.2,1.7,0.2l0.3,0c8.3,0,16.5,0,24.8,0l10.2,0c2.4,0,4.8,0,7.1,0c4.8,0,9.5,0,14.3,0
		c1.2,0,2.3-0.4,3-1.1c0.6-0.6,0.9-1.4,0.9-2.3C281.5,97.5,280,96.2,277.8,96.1z"/>
	<path class="st0-a" d="M221.1,64.8c1.7,0,3.4,0,5.1,0c6.8,0,13.5,0,20.3,0c3,0,4.2-1.7,4.2-3.3c0-0.9-0.3-1.6-0.9-2.2
		c-0.7-0.7-1.9-1.1-3.3-1.1c-3,0-6,0-8.9,0l-2.7,0l-4.8,0l-8.9,0c-4,0-4.3,2.5-4.3,3.3c0,0.9,0.3,1.6,0.9,2.2
		C218.5,64.4,219.6,64.8,221.1,64.8z"/>
</g>
<g>
</g>
<g>
</g>
<g>
</g>
<g>
</g>
<g>
</g>
<g>
</g>
<g>
</g>
<g>
</g>
<g>
</g>
<g>
</g>
<g>
</g>
<g>
</g>
<g>
</g>
<g>
</g>
<g>
</g>
</svg>
