<?xml version="1.0" encoding="utf-8"?>
<!-- Generator: Adobe Illustrator 26.0.1, SVG Export Plug-In . SVG Version: 6.00 Build 0)  -->
<svg version="1.1" id="Capa_1" xmlns="http://www.w3.org/2000/svg" xmlns:xlink="http://www.w3.org/1999/xlink" x="0px" y="0px"
	 viewBox="0 0 693.8 473.6" style="enable-background:new 0 0 693.8 473.6;" xml:space="preserve">
<title>huronOS isolated computer</title>
<style type="text/css">
	.st0-b{fill:#777777;}
	.st1-b{fill:#1F4F79;}
	.st2-b{fill:#0F7F06;}
	.st3-b{fill:#7C0808;}
	.st4-b{fill:#161616;}
</style>
<g>	
	<rect x="264.4" y="128.7" class="st0-b" width="152.6" height="10.3"/>
	<rect x="264.4" y="149.5" class="st0-b" width="107.5" height="10.3"/>
	<rect x="264.4" y="170.3" class="st0-b" width="129.2" height="10.3"/>
	<rect x="264.4" y="229.6" class="st0-b" width="31.1" height="10.3"/>
	<rect x="264.4" y="250.4" class="st0-b" width="129.2" height="10.3"/>
	<rect x="199.8" y="361.1" class="st0-b" width="129.2" height="10.3"/>
	<rect x="298.9" y="379.5" class="st0-b" width="30.2" height="5.2"/>
	<rect x="264.4" y="191.1" class="st0-b" width="53.7" height="10.3"/>
	<path class="st0-b" d="M450.9,101.6v183.2h-208V101.6H450.9 M473.9,78.6h-23h-208h-23v23v183.2v23h23h208h23v-23V101.6V78.6
		L473.9,78.6z"/>
	<path class="st0-b" d="M508.4,343.6v82.2l-322.9,0v-82.2H508.4 M531.3,320.7h-23H185.5h-23v23v82.2v23h23h322.9h23v-23v-82.2V320.7
		L531.3,320.7z"/>
	<circle class="st0-b" cx="477.2" cy="372.9" r="11.8"/>
</g>
<rect y="448.8" class="st1-b" width="693.8" height="24.8"/>
<g>
	<g>
		<path class="st1-b" d="M24.6,452.8h-9.7l-0.3-3.7c-0.2-2-0.3-4-0.5-6l8-0.6c0.1,0.8,0.1,1.5,0.2,2.3h2.3V452.8z"/>
		<path class="st1-b" d="M678.9,452.8h-9.7v-8h2.3c0.1-0.8,0.1-1.5,0.2-2.3l8,0.6c-0.1,2-0.3,4-0.5,6L678.9,452.8z"/>
		<path class="st1-b" d="M680.4,431.1l-8-0.4c0.2-3.9,0.3-7.9,0.4-11.8l8,0.2C680.7,423.1,680.6,427.1,680.4,431.1z M13.4,430.8
			c-0.2-4-0.3-8-0.4-12l8-0.2c0.1,3.9,0.2,7.9,0.4,11.8L13.4,430.8z M672.9,407.1c0-3.9-0.1-7.9-0.2-11.8l8-0.2c0.1,4,0.2,8,0.2,12
			L672.9,407.1z M20.9,406.8l-8,0c0-4,0.1-8,0.2-12l8,0.2C21,398.9,20.9,402.9,20.9,406.8z M672.2,383.5c-0.2-3.9-0.5-7.9-0.8-11.8
			l8-0.6c0.3,4,0.6,8,0.8,12L672.2,383.5z M21.6,383.2l-8-0.4c0.2-4,0.5-8,0.8-12l8,0.6C22.1,375.3,21.8,379.3,21.6,383.2z
			 M670.4,360c-0.4-3.9-0.9-7.8-1.4-11.7l7.9-1c0.5,3.9,1,8,1.4,11.9L670.4,360z M23.5,359.7l-8-0.8c0.4-4,0.9-8,1.4-11.9l7.9,1.1
			C24.4,351.8,23.9,355.8,23.5,359.7z M667.3,336.6c-0.6-3.9-1.3-7.8-2-11.6l7.9-1.5c0.7,3.9,1.4,7.9,2,11.8L667.3,336.6z
			 M26.6,336.3l-7.9-1.3c0.6-3.9,1.3-7.9,2-11.8l7.9,1.5C27.9,328.5,27.2,332.4,26.6,336.3z M662.9,313.4c-0.8-3.8-1.7-7.7-2.6-11.5
			l7.8-1.9c0.9,3.9,1.8,7.8,2.7,11.7L662.9,313.4z M30.9,313l-7.8-1.7c0.8-3.9,1.7-7.8,2.7-11.7l7.8,1.9
			C32.6,305.3,31.8,309.2,30.9,313z M657.4,290.4c-1-3.8-2.1-7.6-3.2-11.4l7.7-2.3c1.1,3.8,2.3,7.7,3.3,11.6L657.4,290.4z
			 M36.5,290.1l-7.7-2.1c1-3.9,2.2-7.7,3.3-11.6l7.7,2.3C38.6,282.5,37.5,286.3,36.5,290.1z M650.6,267.8c-1.2-3.7-2.5-7.5-3.8-11.2
			l7.5-2.7c1.3,3.7,2.7,7.6,3.9,11.4L650.6,267.8z M43.3,267.5l-7.6-2.5c1.2-3.8,2.6-7.6,3.9-11.4l7.5,2.7
			C45.8,260,44.5,263.8,43.3,267.5z M642.6,245.6c-1.4-3.7-2.9-7.3-4.5-10.9l7.4-3.1c1.6,3.7,3.1,7.4,4.5,11.1L642.6,245.6z
			 M51.3,245.3l-7.4-2.9c1.5-3.7,3-7.5,4.6-11.1l7.4,3.1C54.2,238,52.7,241.7,51.3,245.3z M633.4,223.9c-1.6-3.6-3.3-7.1-5.1-10.6
			l7.2-3.5c1.8,3.6,3.5,7.2,5.2,10.9L633.4,223.9z M60.5,223.6l-7.3-3.3c1.7-3.6,3.4-7.3,5.2-10.9l7.2,3.5
			C63.9,216.5,62.2,220,60.5,223.6z M623,202.8c-1.8-3.5-3.7-6.9-5.7-10.3l7-4c2,3.5,3.9,7,5.8,10.5L623,202.8z M71,202.5l-7.1-3.8
			c1.9-3.5,3.8-7.1,5.8-10.5l7,4C74.8,195.5,72.8,199,71,202.5z M611.3,182.3c-2-3.3-4.2-6.7-6.3-10l6.7-4.4
			c2.2,3.3,4.3,6.8,6.4,10.2L611.3,182.3z M82.7,182l-6.8-4.2c2.1-3.4,4.2-6.8,6.4-10.2L89,172C86.8,175.3,84.7,178.6,82.7,182z
			 M598.4,162.5c-2.2-3.2-4.6-6.4-6.9-9.6l6.4-4.8c2.4,3.2,4.7,6.5,7,9.8L598.4,162.5z M95.6,162.2l-6.6-4.6c2.3-3.3,4.7-6.6,7-9.8
			l6.4,4.8C100.1,155.8,97.8,159,95.6,162.2z M584.4,143.6c-2.4-3.1-4.9-6.1-7.5-9.1l6.1-5.2c2.6,3,5.1,6.2,7.6,9.3L584.4,143.6z
			 M109.6,143.3l-6.3-5c2.5-3.1,5.1-6.3,7.6-9.3l6.1,5.2C114.6,137.2,112.1,140.3,109.6,143.3z M569.2,125.6c-2.6-2.9-5.3-5.8-8-8.6
			l5.8-5.6c2.8,2.9,5.5,5.8,8.2,8.8L569.2,125.6z M124.8,125.4l-5.9-5.4c2.7-3,5.5-5.9,8.2-8.8l5.8,5.6
			C130.2,119.6,127.5,122.4,124.8,125.4z M552.8,108.6c-2.8-2.7-5.7-5.4-8.6-8l5.4-5.9c3,2.7,5.9,5.4,8.8,8.2L552.8,108.6z
			 M141.2,108.4l-5.6-5.8c2.9-2.8,5.8-5.6,8.8-8.2l5.4,5.9C146.9,103,144,105.7,141.2,108.4z M535.4,92.9c-3-2.5-6.1-5-9.1-7.4
			l4.9-6.3c3.1,2.5,6.3,5,9.3,7.6L535.4,92.9z M158.7,92.7l-5.2-6.1c3.1-2.6,6.2-5.1,9.4-7.6l4.9,6.3
			C164.8,87.6,161.7,90.1,158.7,92.7z M516.9,78.4c-3.2-2.3-6.4-4.6-9.7-6.8l4.5-6.6c3.3,2.2,6.6,4.6,9.9,6.9L516.9,78.4z
			 M177.2,78.2l-4.7-6.5c3.2-2.4,6.6-4.7,9.9-6.9l4.5,6.6C183.6,73.6,180.4,75.9,177.2,78.2z M497.3,65.2c-3.3-2.1-6.7-4.1-10.1-6
			l3.9-7c3.5,2,7,4,10.4,6.2L497.3,65.2z M196.7,65.1l-4.2-6.8c3.4-2.1,6.9-4.2,10.3-6.1l3.9,7C203.5,61,200.1,63,196.7,65.1z
			 M476.8,53.6c-3.5-1.8-7-3.5-10.6-5.2l3.4-7.2c3.6,1.7,7.3,3.5,10.8,5.3L476.8,53.6z M217.1,53.5l-3.7-7.1
			c3.6-1.8,7.2-3.6,10.8-5.3l3.4,7.2C224.1,50,220.6,51.7,217.1,53.5z M455.5,43.6c-3.6-1.5-7.3-3-10.9-4.3l2.8-7.5
			c3.7,1.4,7.5,2.9,11.2,4.4L455.5,43.6z M238.4,43.6l-3.1-7.4c3.7-1.5,7.5-3,11.2-4.4l2.8,7.5C245.7,40.6,242,42.1,238.4,43.6z
			 M433.5,35.5c-3.7-1.2-7.5-2.4-11.2-3.4l2.2-7.7c3.8,1.1,7.7,2.3,11.5,3.5L433.5,35.5z M260.4,35.4l-2.5-7.6
			c3.8-1.2,7.7-2.4,11.6-3.5l2.2,7.7C267.9,33.1,264.1,34.2,260.4,35.4z M411,29.1c-3.8-0.9-7.6-1.7-11.5-2.5l1.5-7.9
			c3.9,0.8,7.9,1.6,11.8,2.5L411,29.1z M283,29.1l-1.8-7.8c3.9-0.9,7.9-1.8,11.8-2.5l1.5,7.9C290.7,27.3,286.8,28.2,283,29.1z
			 M388,24.7c-3.9-0.6-7.8-1.1-11.6-1.5l0.8-8c4,0.4,8,0.9,12,1.5L388,24.7z M306.1,24.6l-1.2-7.9c4-0.6,8-1.1,12-1.5l0.8,8
			C313.9,23.6,309.9,24.1,306.1,24.6z M364.6,22.2c-3.9-0.2-7.8-0.4-11.7-0.5l0.2-8c4,0.1,8.1,0.3,12.1,0.5L364.6,22.2z M329.4,22.2
			l-0.5-8c4-0.3,8.1-0.4,12.1-0.5l0.2,8C337.3,21.8,333.3,21.9,329.4,22.2z"/>
	</g>
</g>
<polygon class="st2-b" points="576.7,64.9 567.4,73.9 582.6,74.1 501.4,153.1 501.6,137.9 492.3,146.9 492,168.5 513.6,168.8 
	522.9,159.8 507.7,159.6 588.9,80.6 588.7,95.8 598,86.8 598.3,65.2 "/>
<polygon class="st3-b" points="128.7,69.8 128.7,85 104.2,60.5 97.8,66.9 122.3,91.4 107.1,91.4 116.2,100.5 137.8,100.5 137.8,78.9 
	"/>
<g>
	<path class="st4-b" d="M8.3,50.9H3.2v-27h5.1V50.9z"/>
	<path class="st4-b" d="M26.1,50.9V37.2c0-1.1-0.4-1.6-1.6-1.6c-1.2,0-3.4,0.7-5.1,1.7v13.7h-4.9V31.2h3.8l0.5,1.7
		c2.5-1.2,5.6-2.1,7.9-2.1c3.3,0,4.5,2.3,4.5,5.8v14.3H26.1z"/>
	<path class="st4-b" d="M47,50.6c-1.1,0.4-3.1,0.8-4.3,0.8c-3.6,0-5.4-1.7-5.4-5.2v-11h-3v-3.9h3v-4.9l4.9-0.7v5.6h5.1l-0.3,3.9h-4.7
		v10.3c0,1.1,0.5,1.7,1.8,1.7c0.7,0,1.6-0.2,2.5-0.4L47,50.6z"/>
	<path class="st4-b" d="M58.8,47.3c1.9,0,3.9-0.3,6-0.9l0.8,3.7c-2.2,0.9-4.9,1.3-7.3,1.3c-6.2,0-8.3-2.9-8.3-7.6v-5.2
		c0-4.2,1.9-7.7,8.2-7.7s7.7,3.7,7.7,7.9v4.2H55v1C55,46.4,55.8,47.3,58.8,47.3z M55,39h6.3v-1c0-1.9-0.6-3.2-3-3.2S55,36.1,55,38
		V39z"/>
	<path class="st4-b" d="M80.6,35.3c-1.9,0.9-3.4,1.7-5.2,2.9v12.7h-4.9V31.2h4.2l0.3,2.2c1.1-0.7,3.4-2.1,5.2-2.6L80.6,35.3z"/>
	<path class="st4-b" d="M95.6,50.9V37.2c0-1.1-0.4-1.6-1.6-1.6c-1.2,0-3.4,0.7-5.1,1.7v13.7h-4.9V31.2h3.8l0.5,1.7
		c2.5-1.2,5.6-2.1,7.9-2.1c3.3,0,4.5,2.3,4.5,5.8v14.3H95.6z"/>
	<path class="st4-b" d="M113.9,47.3c1.9,0,3.9-0.3,6-0.9l0.8,3.7c-2.2,0.9-4.9,1.3-7.3,1.3c-6.2,0-8.3-2.9-8.3-7.6v-5.2
		c0-4.2,1.9-7.7,8.2-7.7s7.7,3.7,7.7,7.9v4.2h-11v1C110,46.4,110.9,47.3,113.9,47.3z M110,39h6.3v-1c0-1.9-0.6-3.2-3-3.2
		S110,36.1,110,38V39z"/>
	<path class="st4-b" d="M136,50.6c-1.1,0.4-3.1,0.8-4.3,0.8c-3.6,0-5.4-1.7-5.4-5.2v-11h-3v-3.9h3v-4.9l4.9-0.7v5.6h5.1l-0.3,3.9h-4.7
		v10.3c0,1.1,0.5,1.7,1.8,1.7c0.7,0,1.6-0.2,2.5-0.4L136,50.6z"/>
</g>
<g>
	<path class="st4-b" d="M617.1,23.6c0,3.9-2.2,7.2-8.9,7.2s-8.9-3.3-8.9-7.2v-9.7c0-3.9,2.2-7.2,8.9-7.2s8.9,3.3,8.9,7.2V23.6z
		 M603.8,23.3c0,2.2,1.1,3.5,4.4,3.5c3.3,0,4.4-1.3,4.4-3.5v-9.2c0-2.2-1.1-3.5-4.4-3.5c-3.3,0-4.4,1.3-4.4,3.5V23.3z"/>
	<path class="st4-b" d="M631.8,30.4V18.5c0-0.9-0.4-1.4-1.4-1.4c-1.1,0-2.9,0.6-4.5,1.4v11.9h-4.3V13.3h3.3l0.4,1.4
		c2.1-1.1,4.8-1.8,6.9-1.8c2.8,0,3.9,2,3.9,5.1v12.4H631.8z"/>
	<path class="st4-b" d="M640.8,30.4V6.3l4.3-0.6v24.7H640.8z"/>
	<path class="st4-b" d="M650,10.9v-5h4.3v5H650z M650,30.4V13.3h4.3v17.1H650z"/>
	<path class="st4-b" d="M669.4,30.4V18.5c0-0.9-0.4-1.4-1.4-1.4c-1.1,0-2.9,0.6-4.5,1.4v11.9h-4.3V13.3h3.3l0.4,1.4
		c2.1-1.1,4.8-1.8,6.9-1.8c2.8,0,3.9,2,3.9,5.1v12.4H669.4z"/>
	<path class="st4-b" d="M685.2,27.2c1.7,0,3.4-0.2,5.2-0.8l0.7,3.2c-1.9,0.7-4.3,1.1-6.3,1.1c-5.4,0-7.2-2.5-7.2-6.6v-4.5
		c0-3.6,1.6-6.7,7.1-6.7c5.5,0,6.7,3.2,6.7,6.9v3.7h-9.5v0.9C681.9,26.4,682.6,27.2,685.2,27.2z M681.9,20h5.4v-0.8
		c0-1.6-0.5-2.7-2.6-2.7s-2.8,1.1-2.8,2.7V20z"/>
	<path class="st4-b" d="M611.4,37v23.8c0,2.4-1,3.6-4.8,6.9l-2.6-3c2.7-2.6,3-2.8,3-4.3V37H611.4z"/>
	<path class="st4-b" d="M620.4,43.3v11.9c0,0.9,0.4,1.4,1.4,1.4c1.1,0,2.9-0.6,4.5-1.4V43.3h4.3v17.1h-3.3l-0.4-1.4
		c-2.1,1.1-4.8,1.8-6.9,1.8c-2.8,0-3.9-2-3.9-5.1V43.3H620.4z"/>
	<path class="st4-b" d="M634.7,49c0-3.8,1.7-6,5.7-6c1.5,0,3.2,0.2,4.6,0.5v-7.1l4.3-0.6v24.7h-3.4l-0.4-1.4c-1.5,1.1-3.3,1.8-5.4,1.8
		c-3.4,0-5.3-2-5.3-5.9V49z M645,47.1c-1.1-0.2-2.6-0.5-3.8-0.5c-1.5,0-2.1,0.7-2.1,2.3v6c0,1.4,0.5,2.2,2.1,2.2
		c1.4,0,2.9-0.7,3.8-1.5V47.1z"/>
	<path class="st4-b" d="M659,55.8c-0.6,0.4-1,0.8-1,1.4c0,0.5,0.3,0.7,0.9,0.7c1.9,0.2,3,0.3,5,0.5c2.8,0.3,3.7,1.7,3.7,4.1
		c0,3.7-1.3,5.1-7.7,5.1c-2,0-4.7-0.3-6.6-0.9l0.5-3.2c1.8,0.5,3.8,0.7,5.8,0.7c3.4,0,4.1-0.2,4.1-1.4c0-1.1-0.3-1.2-1.6-1.4
		c-2-0.2-2.8-0.3-5-0.6c-2.4-0.3-3.4-1.1-3.4-3.3c0-1.4,0.9-2.3,1.8-2.9c-1.6-0.9-2.3-2.5-2.3-4.6v-1.6c0.1-3.5,1.9-5.7,6.9-5.7
		c1.2,0,2.1,0.1,2.9,0.4h5.3v2.1c-0.6,0.2-1.3,0.4-1.9,0.5c0.4,0.7,0.6,1.7,0.6,2.7v1.6c0,3.5-2.1,5.6-6.9,5.6
		C659.7,55.8,659.3,55.8,659,55.8z M660,46.4c-2.1,0-2.8,0.8-2.8,2.4v1.3c0,1.7,0.8,2.3,2.8,2.3c2,0,2.9-0.7,2.9-2.3v-1.3
		C662.9,47.2,662.2,46.4,660,46.4z"/>
	<path class="st4-b" d="M678.2,57.2c1.7,0,3.4-0.2,5.2-0.8l0.7,3.2c-1.9,0.7-4.3,1.1-6.3,1.1c-5.4,0-7.2-2.5-7.2-6.6v-4.5
		c0-3.6,1.6-6.7,7.1-6.7c5.5,0,6.7,3.2,6.7,6.9v3.7h-9.5v0.9C674.9,56.4,675.6,57.2,678.2,57.2z M674.9,50h5.4v-0.8
		c0-1.6-0.5-2.7-2.6-2.7s-2.8,1.1-2.8,2.7V50z"/>
</g>
<polygon class="st3-b" points="180,114.7 176.5,111.2 162.5,125.1 148.5,111.2 145,114.7 158.9,128.7 145,142.7 148.5,146.2 
	162.5,132.2 176.5,146.2 180,142.7 166,128.7 "/>
<g>
</g>
<g>
</g>
<g>
</g>
<g>
</g>
<g>
</g>
<g>
</g>
<g>
</g>
<g>
</g>
<g>
</g>
<g>
</g>
<g>
</g>
<g>
</g>
<g>
</g>
<g>
</g>
<g>
</g>
</svg>
