<svg width="1000" height="1000" xmlns="http://www.w3.org/2000/svg" version="1.1" xml:space="preserve">
 <g>
  <title>Layer 1</title>
  <g id="Capa_1" class="st0" display="none">
   <circle class="st1" cx="344.3" cy="431.9" r="319.3" display="inline" fill="#EAEAEA" id="svg_1"/>
   <g class="st2" display="inline" id="svg_2">
    <path class="st3" d="m386.9,552.2c12,11.9 25.2,22.6 35.3,36.4c0.9,1.2 1.7,1.4 3.2,1.1c15.8,-3 30.7,-8.2 44.6,-16.5c9.5,-5.7 19.4,-11.1 26.1,-20.3c8.4,-11.6 11.3,-24.6 10.5,-38.8c-1,-16.9 -3.8,-33.4 -13.9,-47.5c-6.1,-8.4 -14.7,-11.9 -25,-9.7c-10,2.1 -15.2,8.9 -17.1,18.6c-1.6,8.2 -1.3,16.3 0,24.5c2.7,16.4 -2.9,28.6 -17.4,36.9c-14.7,8.5 -30.9,11.5 -48.5,13.3c1,0.9 1.6,1.4 2.2,2z" fill="#424242" id="svg_3"/>
    <path class="st3" d="m387,429.5c-0.2,-3.6 -5.4,-6.2 -12.2,-6.3c-0.2,0 -0.3,0 -0.5,0c0,0 0,0 0,0c-0.8,0 -1.6,-0.1 -2.4,0c-3.8,0.7 -8.3,0.9 -9.8,4.9c-1.5,3.8 2.3,6.3 4.8,8.6c2.1,2 3.6,5 7.3,4.8c5.3,-0.3 13.1,-7.5 12.8,-12z" fill="#424242" id="svg_4"/>
    <path class="st3" d="m430.1,394.6c-9.2,-1.4 -18.2,0.3 -27.3,0.9c-1.7,0.1 -2.7,0.3 -2.4,2.4c1.4,8.1 0.6,16.4 2.1,24.5c0.7,3.9 2.8,6 6.5,7.5c5.7,2.4 11.5,-0.5 16,0.6c3.5,0 5.9,-0.2 8.4,-0.1c4.9,0.3 7.2,-2.1 8.4,-6.7c1.3,-4.9 1.6,-9.8 1.4,-14.8c-0.4,-8.8 -4.3,-13 -13.1,-14.3zm-6.8,28.7c-1.4,3.8 -4.3,5.4 -8.3,4.7c-3.6,-0.7 -4.8,-3.4 -5.1,-6.7c-0.1,-1.3 -0.2,-2.6 -0.4,-4.4c0,-4.7 1.1,-9.6 3.1,-14.3c0.9,-2.1 1.5,-4.4 4.8,-3.8c3.8,0.6 7.9,0.7 8.3,5.7c0.7,6.4 -0.1,12.8 -2.4,18.8z" fill="#424242" id="svg_5"/>
    <path class="st3" d="m316.1,379.6c-5.9,-0.2 -11.9,0.4 -18,1.1c-8.5,1.1 -13.5,5.1 -14.8,12.2c-1.4,7.9 -0.6,15.7 1.2,23.5c0.5,2 1.5,3.6 3.8,3.9c15.8,2.3 31.6,4.4 47.6,3.4c7,-0.5 10.3,-3.8 11.6,-10.8c1.2,-6 1.9,-12.1 3.2,-18c1.8,-8.2 0.4,-10.7 -7.9,-12.7c-8.7,-2.1 -17.5,-3 -26.7,-2.6zm14.7,30.2c-1.8,4.6 -4.6,6.4 -8.9,5.9c-4.6,-0.5 -7,-2.9 -7.3,-7.9c-0.4,-6 -0.6,-12 2,-17.7c2.2,-4.9 4.4,-6.1 10,-5c4.4,0.9 6.3,3.8 6.5,7.8c0,1.1 0,2.3 0,3.4c-0.2,4.6 -0.6,9.1 -2.3,13.5z" fill="#424242" id="svg_6"/>
    <path class="st3" d="m426.8,433c-2.8,0.6 -5.1,2.6 -7.8,3.5l0.9,2.9c0,0 0,0 0,0c0.2,0 0.3,0 0.5,0c2.4,-0.8 4.9,-1.4 7.3,-1.9c5.2,-1.1 10.5,-1.6 15.8,-1.5c5.1,0 10.2,0.6 15.3,1.6l0.9,-4.4c-4.3,-0.9 -8.5,-1.4 -12.8,-1.6c-6.8,-0.5 -13.5,0 -20.1,1.4z" fill="#424242" id="svg_7"/>
    <path class="st3" d="m427.5,450.2c7,1.6 13.6,4.6 19.5,9.1l2.7,-3.6c-6.5,-4.8 -13.7,-8.2 -21.3,-9.9c-2.2,-0.5 -4.5,-0.8 -6.8,-1.1c-1,-0.1 -2.1,-0.2 -3.1,-0.2l-0.2,4.5c0.7,0 1.4,0.1 2,0.1c2.5,0.2 4.9,0.6 7.2,1.1z" fill="#424242" id="svg_8"/>
    <path class="st3" d="m415.2,457.8c0.8,0.3 1.6,0.7 2.4,1.1c1.6,0.8 3.2,1.6 4.8,2.5c5.3,3.2 10,7.2 14,12.1l3.5,-2.9c-4.3,-5.3 -9.4,-9.7 -15.2,-13.2c-1.8,-1.1 -3.8,-2.1 -5.7,-2.9c-0.7,-0.3 -1.3,-0.6 -2,-0.9l-1.8,4.2z" fill="#424242" id="svg_9"/>
    <path class="st3" d="m315.5,699.6c15.7,-7.1 26.7,-18.7 30.2,-35.4c0.3,-1.6 0.6,-3.3 0.8,-5l0,0c0,0 0,0 0,0c0.1,-0.5 0.1,-1.1 0.2,-1.6c0,-0.1 0,-0.2 0,-0.3c0.6,-8.3 -1.4,-16 -9.2,-20.7c-7.9,-4.7 -15.4,-1.6 -22.2,2.7c-5.6,3.5 -10.7,7.8 -15.8,11.9c-0.4,0.3 -0.4,0.3 -0.6,0.5c-0.2,0.2 -0.6,0.5 -2,1.5c-1.8,1.3 -3.7,2.5 -5.7,3.5c-4.8,2.6 -10,4.4 -15.5,5.5c-4.2,0.8 -8,0.9 -11.2,0.2c-2.1,-0.5 -4,-1.3 -5.7,-2.4c-4.5,-3.1 -7.3,-8.5 -8.1,-16.2c-0.1,-1.4 -0.2,-2.9 -0.3,-4.3c0,-1.8 0,-3.6 0.3,-5.3l0.1,0c0,0 -0.1,0 -0.1,-0.1c0.1,-0.5 0.1,-0.9 0.2,-1.4c0,-0.3 0.1,-0.5 0.2,-0.8c3.1,-15.8 12.5,-27.7 23.9,-38.3c1.5,-1.4 3.4,-2.4 5.2,-3.4c0.9,-0.5 2,-1.6 2.9,-0.2c0.7,1 -0.6,1.6 -1.1,2.3c-1.3,1.8 -2.6,3.5 -3.9,5.2c-0.1,0 -0.2,0 -0.2,0c0,0.1 0,0.2 -0.1,0.3c-0.9,1 -1.8,2 -2.7,3c-1.5,14.7 -4,27.7 -6.5,40.3c7.4,3.4 15.1,6.3 23.1,8.7c3.4,-2.2 6.5,-4.7 9.7,-7.3c6.6,-5.5 13.4,-10.6 21.9,-12.8c10.9,-2.8 20.4,1.2 25.8,11c2.9,5.3 3.9,10.9 3.7,16.5c30.3,-1.4 58.6,-10.1 83.4,-24.4c-2.2,-8.3 -4.5,-15.8 -6.8,-21.5c-3.1,-8 -10.9,-20.3 -18.8,-28.6c-10.2,-10.7 -21,-20.9 -31.5,-31.3c-10.4,-10.2 -17.6,-22.5 -22.4,-36.1c-1.3,-3.7 -1.7,-4.7 -5.9,-3.9c-12.1,2.3 -24.3,3 -36.5,0.2c-23.4,-5.4 -41.6,-19.8 -59.6,-34.5c-0.7,-0.6 -1.8,-1.3 -0.7,-2.3c1,-0.8 1.7,0.3 2.5,0.8c9,6.6 18.5,12.2 28.1,17.8c20.5,12 41.9,17.1 65.7,12.6c34,-6.5 57.8,-24.3 67.8,-66.1c-0.1,0 -0.2,0.1 -0.3,0.1c-10.8,1.4 -21,-5.3 -23.5,-15.4c-2,-8.3 -11,-14.9 -19.7,-14.3c-6.6,0.5 -12.5,3 -17.8,6.9c-1.2,0.9 -2,2.1 -2.6,3.4c-3.1,7.5 -9.2,11.2 -16.8,12c-8,0.8 -18,-0.6 -24,-1.2c-2.2,-0.2 -5.7,-0.5 -9.4,-0.7l-0.7,4.1c-14.1,-2.5 -28.2,-2.6 -42,-0.5c-5,0.8 -9.9,1.8 -14.7,3.2l-1.2,-4.4c5,-1.4 10.1,-2.5 15.3,-3.3c7.5,-1.2 15.2,-1.7 22.8,-1.5c-4.9,-2.2 -7.4,-6.8 -8.7,-15.4c-0.9,-6.5 -0.8,-13.2 -0.3,-19.8c0.9,-11 8.5,-18.7 21.4,-20.9c15.5,-2.7 31.1,-2.4 46.6,0.7c2.1,0.4 4.1,1 6,1.7c10.3,3.5 13.9,11.1 10.1,21.3c-1.2,3.2 -1.3,6.6 -2,10.2c11,-6.3 22,-7.4 33.4,-2.1c3.6,1.7 3.2,-0.8 3.3,-3c0.4,-8.3 7,-15.1 15.2,-15.8c2.3,-0.4 4.2,-2 5.1,-2.8c7.1,-5.8 18.4,-15.1 22.6,-21.7c2.5,-4 6.2,-16 6.3,-17.8c0.1,-1.7 -8.3,3.1 -10.9,4.5c-1.5,0.8 -5.3,2.5 -6.7,1.4c-0.1,-0.1 -0.2,-0.3 -0.2,-0.4c5.9,-9.5 14.2,-18.3 10.7,-31.7c-4.5,4.4 -8.1,8.9 -13.1,11.9c-2.9,1.7 -5.9,3.3 -9.1,4.3c-1.1,0.3 -2.3,0.4 -3,-0.7c-0.6,-0.8 -0.2,-1.5 0.5,-2.1c6.4,-5.4 7.5,-13.2 8.9,-20.7c0.4,-2.2 0.5,-7.9 -0.2,-8.9c-1,-1.6 -3.8,2 -4.7,3.1c-1.1,1.2 -3.1,3 -4.9,4.1c-12,7.6 -24.9,12.8 -39.3,13.3c-19.5,0.6 -39,-0.3 -58.5,1.4c-24.1,2 -45.8,9.9 -64.7,25c-1.1,0.9 -2.7,1.5 -3,3c-0.6,3.3 -2.3,2.3 -4.2,1.4c-4.1,-1.9 -8.5,-3.1 -13,-3.2c-14,-0.5 -24,11.8 -20.8,25.3c1.8,7.9 6.3,14.3 11.2,20.6c1.2,1.5 4.4,2.8 2.9,4.7c-1.2,1.6 -3.3,-1.5 -5.6,-1.8c-0.4,1.4 -0.9,2.9 -1.2,4.4c-6,26.4 -2,52.2 4.6,77.8c5.8,22.5 19.2,40.9 32.3,59.3c1,1.3 2,1.5 3.7,1.4c12.9,-1.1 26.7,7.5 31.7,19.4c0.5,1.2 0.8,2.4 1.1,3.7c0.2,0.8 0.1,1.7 -0.8,2c-0.9,0.4 -1.5,-0.2 -1.9,-0.9c-1.1,-1.8 -2.1,-3.6 -3.3,-5.4c-11.3,-16.6 -28.7,-18.4 -43.2,-4.7c-4.2,4 -8.2,8.2 -11.3,13.2c-6.5,10.2 -11.7,20.9 -15.8,32c-0.3,0.8 -0.6,1.6 -0.9,2.4c0,0 0,0 0,0l0,0.1c-0.6,1.6 -1.1,3.2 -1.6,4.9c-4,12.6 -6.7,25.6 -8,39.1c-1.3,13.1 0.4,24.1 5.1,33.1c0,0 3.6,2.4 0,0c6,11.4 17,19.6 33,24.7c5.3,1.7 10.6,2.9 15.9,3.8c2,0.3 4.1,0.6 6.1,0.8c1.9,0.2 3.7,0.4 5.6,0.5c0,0 0,0 0,0c0,0 0.1,0 0.1,0c0.1,0 0.1,0 0.2,0c0,0 0,0 0,0c16.5,0.9 33.3,-2.2 49.3,-9.4zm-72.6,-335.6c-4,8.5 -9.3,16.1 -15.7,23c-1.7,1.8 -2.8,0.8 -4,-0.5c-3.1,-3.3 -5.5,-7.1 -7,-11.4c-3.9,-11.2 0.9,-18 13.6,-17.9c4,-1 7.7,2.2 11.9,3.6c1.7,0.5 1.8,1.9 1.2,3.2zm74,93.6c11.6,5.6 23.6,9.4 36.8,7.5c10.1,-1.5 16.4,-7 18.9,-16.1c0.6,-2.3 0.3,-3.3 -2,-4.3c-5,-2.1 -8.9,-5.8 -12,-10.2c-3.4,-4.8 -2.6,-9.7 2.5,-12.9c8.4,-5.2 17.2,-5 25.8,-0.8c5.3,2.6 6.8,8.3 4,13.7c-2.4,4.5 -5.6,8.4 -10.5,10.2c-2.9,1.1 -3.4,2.9 -3.2,5.5c1,12.7 8.3,16.3 19.4,9.7c4.1,-2.4 7.3,-6.1 12.2,-9.5c-2.8,9.3 -11.6,17 -19.2,17.8c-7.2,0.7 -12.2,-2 -15.8,-8.9c-8.7,10.2 -20.1,12.6 -32.6,11.2c-11.3,-1.3 -20.7,-6.8 -29.9,-14c2.9,-1.3 4.1,0.4 5.6,1.1zm-8.9,-4.3c-5.1,1.9 -9.9,4.4 -14.4,7.5c-7.9,5.4 -14.6,12.4 -19.9,20.7l-3.8,-2.4c5.6,-8.9 12.8,-16.3 21.2,-22.1c4.7,-3.2 9.9,-5.9 15.3,-8l1.6,4.3zm-57.3,10.9l-2.2,-3.9c10.1,-5.8 20.8,-10.7 31.7,-14.7c8.1,-3 16.4,-5.4 24.7,-7.4l1,4.4c-8.2,1.9 -16.3,4.3 -24.2,7.2c-10.7,3.9 -21.1,8.7 -31,14.4z" fill="#424242" id="svg_10"/>
   </g>
   <text transform="matrix(1 0 0 1 189.1936 271.7122)" class="st4 st5 st6" display="inline" fill="#424242" font-family="'Klavika-Bold'" font-size="84.2021px" id="svg_11">huronOS</text>
  </g>
  <rect stroke-width="0" id="svg_22" height="721" width="488" y="158" x="257" stroke="#000" fill="#fff"/>
  <rect stroke-width="0" id="svg_23" height="74" width="218.99999" y="826" x="288.00001" stroke="#000" fill="#fff"/>
  <g id="Capa_2">
   <g id="svg_12">
    <path class="st7" d="m542.4,538.8c5.2,9.9 12.4,13.8 22.7,12.8c11,-1.1 23.7,-12.2 27.7,-25.6c-7,4.9 -11.6,10.2 -17.6,13.7c-16,9.5 -26.5,4.3 -28,-14c-0.3,-3.8 0.4,-6.4 4.6,-8c7,-2.7 11.7,-8.2 15.1,-14.7c4,-7.7 1.9,-15.9 -5.8,-19.7c-12.4,-6.1 -25.1,-6.3 -37.2,1.1c-7.3,4.5 -8.5,11.5 -3.5,18.5c4.5,6.3 10.1,11.6 17.3,14.6c3.4,1.4 3.8,2.9 2.9,6.2c-3.5,13.1 -12.6,21.1 -27.2,23.2c-19,2.7 -36.2,-2.8 -53,-10.9c-2.1,-1 -3.9,-3.5 -8.2,-1.3c13.3,10.4 26.9,18.2 43.1,20.1c18.2,2.2 34.6,-1.3 47.1,-16zm-9.8,-32.7c-3.6,-3.4 -9.1,-7 -6.9,-12.5c2.2,-5.6 8.7,-6.1 14.2,-7c1.1,-0.2 2.3,-0.1 3.5,-0.1c0,0 0,0 0,-0.1c0.2,0 0.5,0 0.7,0c9.9,0 17.4,3.9 17.6,9c0.4,6.5 -10.8,16.9 -18.5,17.4c-5.4,0.5 -7.6,-3.8 -10.6,-6.7z" fill="#20507A" id="svg_13"/>
    <path class="st7" d="m352.3,396.4c-6,-2 -11.4,-6.6 -17.2,-5.2c-18.3,-0.1 -25.3,9.6 -19.7,25.9c2.2,6.2 5.7,11.6 10.1,16.4c1.6,1.7 3.3,3.2 5.7,0.6c9.3,-9.9 16.8,-20.9 22.6,-33.1c0.9,-1.7 0.8,-3.8 -1.5,-4.6z" fill="#20507A" id="svg_14"/>
    <path class="st7" d="m617.5,459.4c-0.6,-7.3 -6.6,-7.3 -12,-8.2c-4.8,-0.8 -5.6,2.5 -6.9,5.5c-3,6.8 -4.5,13.9 -4.5,20.6c0.2,2.6 0.4,4.5 0.6,6.4c0.4,4.8 2.1,8.6 7.3,9.6c5.8,1.1 9.9,-1.3 12,-6.7c3.2,-8.7 4.4,-17.9 3.5,-27.2z" fill="#20507A" id="svg_15"/>
    <path class="st7" d="m392.8,567.1l5.5,3.5c7.6,-12.1 17.3,-22.1 28.7,-29.9c6.4,-4.4 13.4,-8 20.7,-10.8l-2.3,-6.1c-7.8,3 -15.2,6.8 -22.1,11.5c-12.1,8.2 -22.4,18.9 -30.5,31.8z" fill="#20507A" id="svg_16"/>
    <path class="st7" d="m484.1,254.6c6.3,0 9.2,-3.2 9.2,-8.7l0,-14.7c0,-5.6 -2.9,-8.7 -9.2,-8.7c-6.3,0 -9.2,3.2 -9.2,8.7l0,14.7c0,5.6 2.9,8.7 9.2,8.7z" fill="#20507A" id="svg_17"/>
    <path class="st7" d="m620.2,253.2c9.1,0 13.1,-3.9 13.1,-10.2l0,-30.6c0,-6.3 -4,-10.2 -13.1,-10.2c-9.1,0 -13.1,3.9 -13.1,10.2l0,30.6c0,6.3 4,10.2 13.1,10.2z" fill="#20507A" id="svg_18"/>
    <path class="st7" d="m500,38.8c-254.2,0 -460.2,206 -460.2,460.2s206,460.2 460.2,460.2s460.2,-206 460.2,-460.2s-206,-460.2 -460.2,-460.2zm186.9,195.4c-19.5,-4.2 -22.5,-8.1 -22.5,-25.6c0,-16.1 5.7,-22.6 27.9,-22.6c7,0 15.5,0.7 24.5,2.7l-1.8,15.3c-9.2,-1.6 -15.2,-2.3 -22.5,-2.3c-8.1,0 -10,1.5 -10,7.4c0,7.8 0.4,7.9 13.1,10.9c21.8,5.2 22.9,9.5 22.9,25.4c0,16 -5.2,23.9 -29.6,23.9c-9.3,0 -19.2,-2.1 -26.1,-5.2l3,-14.1c7.4,2.3 14.9,3.9 23.3,3.9c9.3,0 11.2,-1.8 11.2,-8.6c0.2,-7.3 -0.2,-8.2 -13.4,-11.1zm-67,291.1c-3.3,-0.7 -6.7,-1.2 -10.1,-1.5c-1,-0.1 -1.9,-0.1 -2.9,-0.2l0.2,-6.5c1.5,0.1 3,0.2 4.5,0.3c3.3,0.3 6.5,0.8 9.7,1.5c11,2.4 21.3,7.2 30.6,14.2l-3.9,5.2c-8.6,-6.3 -18.1,-10.7 -28.1,-13zm17.9,29.5l-5.1,4.1c-5.7,-7 -12.5,-12.9 -20.2,-17.5c-2.2,-1.3 -4.5,-2.5 -6.9,-3.6c-1.1,-0.5 -2.2,-1.1 -3.4,-1.5l2.5,-6c1,0.4 1.9,0.9 2.9,1.3c2.8,1.3 5.6,2.7 8.3,4.2c8.3,5 15.7,11.3 21.9,19zm-44.6,-58.6c-5.3,-2.2 -8.3,-5.3 -9.4,-10.9c-2.2,-11.7 -1,-23.6 -3.1,-35.3c-0.5,-3.1 1,-3.3 3.4,-3.5c13.1,-0.9 26.2,-3.3 39.4,-1.3c12.7,1.9 18.4,7.9 18.9,20.8c0.3,7.2 -0.2,14.3 -2,21.4c-1.7,6.7 -5.1,10 -12.1,9.6c-3.5,-0.2 -7,0 -12,0.1c-6.5,-1.6 -14.8,2.5 -23.1,-0.9zm49.8,8.5c-7.7,-0.1 -15.3,0.7 -22.8,2.2c-3.5,0.7 -7.1,1.7 -10.6,2.7c-0.2,0 -0.5,0 -0.7,0c0,0 0,0 0,0l-1.3,-4.1c3.9,-1.2 7.3,-4.2 11.3,-5c9.5,-1.9 19.2,-2.7 29,-2.2c6.1,0.3 12.3,1.1 18.4,2.3l-1.3,6.4c-7.3,-1.4 -14.7,-2.2 -22,-2.3zm-54.2,-293.9c0,-12.3 8.5,-24.8 31.3,-24.8c22.8,0 31.3,12.5 31.3,24.8l0,33.7c0,12.3 -8.5,24.8 -31.3,24.8c-22.8,0 -31.3,-12.5 -31.3,-24.8l0,-33.7zm-65.3,-1.8l13,0l1.8,4.5c7.3,-3.5 16.7,-5.7 23.5,-5.7c10.1,0 13.6,7.5 13.6,18.9l0,41.4l-17.4,0l0,-39.1c0,-2.7 -1.2,-4.2 -4.2,-4.2c-3.2,0 -9,2.2 -12.7,4.2l0,39.1l-17.5,0l0,-59.1l-0.1,0zm-66.1,22.7c0,-12.1 5.7,-23.9 26.7,-23.9c21,0 26.7,11.8 26.7,23.9l0,13.7c0,12.1 -5.7,23.9 -26.7,23.9c-21,0 -26.7,-11.8 -26.7,-23.9l0,-13.7zm-38.8,-22.7l14.6,0l1.2,5.7c3.6,-2.4 11.2,-5.9 15.9,-6.9l1.5,16.5c-5.2,2.1 -11.9,5.1 -15.7,7.8l0,36l-17.5,0l0,-59.1zm-67.8,0l17.5,0l0,39.1c0,2.7 1.2,4.2 4.2,4.2c3.2,0 9,-2.2 12.7,-4.2l0,-39.1l17.5,0l0,59.1l-13,0l-1.8,-4.5c-7.3,3.5 -16.7,5.7 -23.5,5.7c-10.1,0 -13.6,-7.5 -13.6,-18.9l0,-41.4zm-66.5,-24.2l17.2,-2.4l0,30.8c7.2,-3.3 14.3,-5.5 21.1,-5.5c10.1,0 13.6,7.5 13.6,18.9l0,41.4l-17.5,0l0,-39c0,-2.7 -1.2,-4.2 -4.2,-4.2c-3.2,0 -9,2.4 -12.7,4.4l0,39l-17.5,0l0,-83.4zm227.7,638.9c0.3,-8.2 -1.2,-16.2 -5.3,-23.8c-7.7,-14.2 -21.5,-20 -37.1,-15.9c-12.3,3.2 -22.1,10.5 -31.6,18.4c-4.5,3.8 -9.1,7.4 -13.9,10.5c-11.4,-3.4 -22.5,-7.6 -33.3,-12.5c3.6,-18.1 7.1,-36.9 9.4,-58c1.3,-1.5 2.6,-2.9 4,-4.3c0,-0.2 0,-0.3 0.1,-0.5c0.1,0 0.2,0 0.3,0c1.9,-2.5 3.8,-4.9 5.7,-7.5c0.7,-1 2.6,-1.8 1.6,-3.3c-1.3,-2 -3,-0.4 -4.2,0.3c-2.6,1.5 -5.3,2.9 -7.5,5c-16.5,15.3 -30,32.5 -34.5,55.2c-0.1,0.4 -0.2,0.8 -0.2,1.2c-0.1,0.7 -0.2,1.3 -0.3,2c0,0 0.1,0.1 0.1,0.1l-0.2,0c-0.3,2.5 -0.4,5.1 -0.4,7.7c0,2.1 0.2,4.1 0.4,6.2c1.1,11.1 5.1,18.9 11.7,23.4c2.4,1.6 5.2,2.8 8.2,3.5c4.7,1 10,1 16.1,-0.2c7.9,-1.6 15.4,-4.3 22.3,-8c2.8,-1.5 5.6,-3.2 8.2,-5c2,-1.5 2.6,-1.9 2.9,-2.2c0.3,-0.2 0.3,-0.2 0.9,-0.7c7.5,-5.9 14.8,-12.1 22.8,-17.1c9.8,-6.2 20.7,-10.6 32,-3.8c11.3,6.7 14.2,17.9 13.3,29.8c0,0.1 0,0.3 0,0.4c-0.1,0.8 -0.1,1.6 -0.2,2.3c0,0 0,0 0,0l0,0.1c-0.3,2.5 -0.7,4.9 -1.2,7.2c-5,24.1 -20.8,40.8 -43.5,51c-23,10.4 -47.3,14.8 -71.3,13.6c0,0 0,0 0,0c-0.1,0 -0.2,0 -0.2,0c-0.1,0 -0.1,0 -0.2,0c0,0 0,0 0,0c-2.7,-0.2 -5.3,-0.4 -8,-0.7c-2.9,-0.3 -5.9,-0.7 -8.8,-1.2c-7.6,-1.3 -15.3,-3.1 -22.9,-5.5c-23,-7.3 -38.8,-19.1 -47.5,-35.6c5.1,3.5 0,0 0,0c-6.8,-13 -9.3,-28.9 -7.4,-47.7c2,-19.4 5.8,-38.2 11.6,-56.3c0.8,-2.3 1.5,-4.7 2.4,-7l0,-0.1c0,0 0,0 0.1,0.1c0.4,-1.2 0.9,-2.3 1.3,-3.5c5.9,-15.9 13.5,-31.3 22.8,-46.1c4.5,-7.1 10.2,-13.2 16.3,-19c20.9,-19.8 45.8,-17.1 62.2,6.8c1.7,2.5 3.1,5.1 4.7,7.7c0.6,1.1 1.4,1.9 2.8,1.3c1.3,-0.5 1.4,-1.8 1.1,-2.9c-0.5,-1.8 -0.9,-3.6 -1.6,-5.3c-7.1,-17.3 -27.1,-29.6 -45.6,-28c-2.4,0.2 -3.9,0 -5.3,-2c-19,-26.6 -38.3,-53.1 -46.6,-85.5c-9.5,-37 -15.3,-74.1 -6.6,-112.2c0.5,-2.2 1.2,-4.3 1.7,-6.4c3.2,0.4 6.2,4.8 8,2.5c2.1,-2.8 -2.5,-4.7 -4.2,-6.8c-7.1,-9 -13.5,-18.3 -16.2,-29.6c-4.6,-19.6 9.9,-37.2 30,-36.5c6.6,0.2 12.8,1.9 18.8,4.6c2.7,1.3 5.2,2.7 6.1,-2c0.4,-2.2 2.7,-3 4.3,-4.3c27.3,-21.9 58.5,-33.1 93.3,-36.1c28.1,-2.4 56.2,-1.1 84.3,-2c20.8,-0.7 39.3,-8.2 56.6,-19.2c2.6,-1.6 5.5,-4.2 7,-6c1.3,-1.5 5.3,-6.8 6.8,-4.4c0.9,1.5 0.8,9.7 0.2,12.9c-2,10.8 -3.6,22 -12.8,29.9c-0.9,0.8 -1.5,1.8 -0.7,3c1.1,1.7 2.8,1.5 4.4,1.1c4.7,-1.5 9,-3.7 13.2,-6.2c7.2,-4.3 12.5,-10.8 18.9,-17.2c5,19.3 -7,32 -15.5,45.7c0.1,0.2 0.2,0.4 0.4,0.6c2,1.6 7.4,-0.8 9.6,-2c3.8,-1.9 15.9,-8.8 15.8,-6.4c-0.2,2.5 -5.4,19.9 -9.1,25.6c-6.1,9.5 -22.4,22.9 -32.6,31.3c-1.4,1.1 -4,3.5 -7.4,4c-11.8,0.9 -21.2,10.7 -21.9,22.7c-0.2,3.1 0.3,6.7 -4.8,4.3c-16.3,-7.7 -32.2,-6.1 -48.1,3c1,-5.2 1.2,-10 2.9,-14.7c5.4,-14.8 0.2,-25.7 -14.6,-30.7c-2.9,-1 -5.8,-1.9 -8.7,-2.4c-22.3,-4.4 -44.8,-4.8 -67.2,-1c-18.6,3.2 -29.6,14.2 -30.9,30.1c-0.7,9.5 -0.9,19.1 0.4,28.5c1.7,12.5 5.4,19.1 12.5,22.2c-11.1,-0.2 -22.1,0.5 -32.9,2.2c-7.4,1.1 -14.8,2.8 -22,4.8l1.8,6.3c7,-2 14.1,-3.5 21.3,-4.6c19.9,-3.1 40.3,-2.8 60.6,0.7l1,-5.9c5.2,0.4 10.3,0.8 13.5,1.1c8.6,0.8 23.1,2.8 34.5,1.7c11,-1.1 19.8,-6.4 24.3,-17.3c0.8,-2 1.9,-3.7 3.7,-4.9c7.7,-5.5 16.2,-9.2 25.7,-9.9c12.4,-0.9 25.4,8.6 28.3,20.6c3.6,14.6 18.3,24.2 33.9,22.3c0.1,-0.1 0.3,-0.1 0.4,-0.2c-14.4,60.2 -48.8,85.9 -97.7,95.2c-34.3,6.6 -65.2,-0.9 -94.8,-18.1c-13.8,-8.1 -27.6,-16.2 -40.5,-25.7c-1,-0.8 -2.1,-2.4 -3.5,-1.2c-1.6,1.4 -0.1,2.4 1,3.3c25.9,21.3 52.2,41.9 85.8,49.8c17.5,4.1 35.2,3 52.6,-0.3c6.1,-1.2 6.7,0.3 8.6,5.7c6.9,19.6 17.3,37.3 32.3,52.1c15.2,15 30.7,29.7 45.5,45.2c11.4,12 22.6,29.7 27.2,41.2c3.3,8.3 6.6,19.1 9.8,31c-36.3,19.9 -77.2,32.4 -120.8,34.4zm-2.9,-378c-1.9,8.6 -2.9,17.4 -4.6,26c-1.9,10 -6.6,14.9 -16.8,15.5c-23,1.5 -45.8,-1.5 -68.6,-4.9c-3.2,-0.5 -4.8,-2.7 -5.4,-5.6c-2.6,-11.2 -3.7,-22.5 -1.7,-33.8c1.9,-10.2 9,-16 21.3,-17.6c8.8,-1.1 17.5,-1.9 26,-1.6c13.3,-0.6 25.9,0.7 38.4,3.7c12,2.8 14,6.5 11.4,18.3zm209.6,227.6c-9.7,13.3 -23.9,21.1 -37.6,29.3c-19.9,12 -41.5,19.5 -64.2,23.7c-2.2,0.4 -3.4,0.2 -4.6,-1.5c-14.6,-19.8 -33.6,-35.2 -50.9,-52.4c-0.8,-0.8 -1.6,-1.5 -3.3,-2.9c25.4,-2.6 48.8,-6.9 69.9,-19.2c20.8,-12 29,-29.7 25.1,-53.3c-1.9,-11.8 -2.4,-23.5 0,-35.3c2.8,-14.1 10.2,-23.9 24.6,-26.9c14.8,-3 27.3,1.9 36,14c14.6,20.3 18.7,44 20.1,68.4c1.1,20.6 -3,39.4 -15.1,56.1z" fill="#20507A" id="svg_19"/>
    <path class="st7" d="m474.4,431.5c-8,-1.6 -11.3,0.1 -14.4,7.2c-3.7,8.3 -3.4,16.9 -2.8,25.6c0.5,7.2 3.9,10.6 10.6,11.4c6.2,0.7 10.2,-1.9 12.8,-8.6c2.4,-6.3 3.1,-12.8 3.3,-19.4c0,-1.6 0,-3.3 -0.1,-4.9c-0.2,-5.9 -3,-10 -9.4,-11.3z" fill="#20507A" id="svg_20"/>
    <path class="st7" d="m444.7,514.3l-1.5,-6.4c-12,2.8 -24,6.4 -35.7,10.7c-15.7,5.8 -31.1,12.9 -45.7,21.2l3.2,5.7c14.3,-8.1 29.3,-15.1 44.7,-20.8c11.4,-4.2 23.2,-7.7 35,-10.4z" fill="#20507A" id="svg_21"/>
   </g>
  </g>
 </g>

</svg>