<?xml version="1.0" encoding="utf-8"?>
<!-- Generator: Adobe Illustrator 26.0.1, SVG Export Plug-In . SVG Version: 6.00 Build 0)  -->
<svg version="1.1" id="Capa_1" xmlns="http://www.w3.org/2000/svg" xmlns:xlink="http://www.w3.org/1999/xlink" x="0px" y="0px"
	 viewBox="0 0 1000 602.1" style="enable-background:new 0 0 1000 602.1;" xml:space="preserve">
<title>huronOS USB sticks</title>
<style type="text/css">
	.st0-c{fill:#777778;}
	.st1-c{fill:#1F4F79;}
	.st2-c{fill:#FFFFFF;}
</style>
<g>
	<g>
		<path class="st0-c" d="M601,128.6c-5.3,5.1-10.8,10.1-16,15.4c-35.2,35.1-70.4,70.3-105.6,105.5c-3.2,3.2-4.4,3.2-7.3,0.3
			c-39.6-39.8-79.3-79.5-118.9-119.3c-3.8-3.8-3.7-4.5,0.1-8.3c40.4-40.3,80.8-80.7,121.2-121c0.3-0.3,0.6-0.7,0.9-1.1
			c0.5,0,0.9,0.1,1.4,0.1c0.4,0.5,0.8,1.1,1.3,1.6c29.3,29.4,58.5,58.8,87.8,88.1c11.8,11.8,23.6,23.5,35.4,35.2
			C601.2,126.2,601.1,127.4,601,128.6z M446.2,117.1c0.8-0.5,1.5-0.9,2.1-1.4c5.6-5.6,11.2-11.2,16.8-16.7c1.7-1.7,1.2-2.9-0.3-4.4
			c-7.1-7.1-14.2-14.2-21.2-21.3c-1.6-1.6-2.8-1.8-4.4-0.1c-5.5,5.6-11,11.1-16.5,16.5c-1.7,1.6-1.5,2.9,0.1,4.4
			c7.2,7.1,14.3,14.4,21.5,21.5C444.7,116.1,445.5,116.5,446.2,117.1z M505.3,135.7c-0.8,0.6-1.6,1-2.3,1.6
			c-5.5,5.5-11,11-16.6,16.5c-1.5,1.5-1.5,2.7,0,4.2c7.2,7.2,14.4,14.4,21.5,21.6c1.6,1.6,2.9,1.6,4.5,0
			c5.4-5.5,10.8-10.9,16.3-16.3c1.7-1.7,1.8-3,0-4.7c-7.2-7.1-14.2-14.2-21.3-21.3C506.9,136.8,506.2,136.4,505.3,135.7z
			 M419.2,131.4c-0.5-1-0.6-1.6-1-2c-2.6-2.6-5.1-5.2-7.8-7.8c-0.4-0.4-1.6-0.8-1.9-0.5c-2.5,2.3-4.8,4.7-7.2,7.1
			c3.3,3.4,6.7,6.8,10,10.2C414,136,416.6,133.7,419.2,131.4z M470.9,182.9c-2.4,2.8-4.9,5.5-7.2,8.3c-0.2,0.2,0.5,1.3,0.9,1.7
			c2.3,2.4,4.6,4.7,6.9,7c1.4,1.5,2.9,1.3,3.8-0.2c1.6-2.7,6.3-3.4,5.2-7.8c0-0.1-0.1-0.2-0.2-0.3c-2.5-2.5-4.9-5-7.5-7.5
			C472.5,183.8,472,183.6,470.9,182.9z"/>
		<path class="st1-c" d="M480.2,267.5c-4.8,4.3-9.2,8.2-13.7,11.9c-0.4,0.3-2.6-1.2-3.6-2.2c-18.9-18.9-37.7-37.8-56.6-56.7
			c-26.9-26.9-53.7-53.9-80.6-80.8c-4-4.1-4-4.4,0-8.5c2-2,4-4,6-6c3.4-3.4,4.1-3.4,7.5,0c15.7,15.7,31.4,31.5,47.1,47.2
			c29.9,30,59.9,60.1,89.8,90.1C477.3,263.9,478.4,265.4,480.2,267.5z"/>
		<path class="st1-c" d="M465.5,291.8C414,240.3,362.6,188.7,311.2,137.1c-3.5-3.5-3.5-3.4-6.9,0c-20.3,20.3-40.6,40.6-61,60.9
			C165.4,275.9,87.6,353.6,9.7,431.5c-13,13-12.9,32.7,0,45.8c3.2,3.3,6.5,6.5,9.8,9.8c34.7,34.8,69.5,69.6,104.2,104.5
			c6.1,6.1,13.2,9.9,24.6,10.5c7.6,0.3,16-3.7,23.2-10.9c59.7-59.7,119.4-119.4,179.1-179c38.1-38.1,76.3-76.2,114.4-114.3
			C467,295.8,468.2,294.5,465.5,291.8z"/>
		<g>
			<g>
				<path class="st2-c" d="M165.7,473.5l-17.2-17.2c-1.2-1.2-2.4-1.3-3.7,0c-1.4,1.4-2.9,5-3.7,7.5l17.2,17.2l-7.7,7.7L113.8,452
					l6.5-8.7l13.6,13.6c1.7-4.6,3.9-8.7,6.9-11.7c4.4-4.4,9.3-2.7,14.3,2.4l18.2,18.2L165.7,473.5z"/>
				<path class="st2-c" d="M161.4,425.7l17.2,17.2c1.2,1.2,2.4,1.3,3.7,0c1.4-1.4,3-4.9,3.7-7.5l-17.2-17.2l7.7-7.7l26,26l-5.7,5.7
					l-2.8-1.2c-1.7,4.8-4.9,9.9-7.9,12.9c-4.4,4.4-9.3,2.7-14.3-2.4l-18.2-18.2L161.4,425.7z"/>
				<path class="st2-c" d="M201.4,406l15.9,15.9l-7.7,7.7l-26-26l6.4-6.4l3,2c0.5-2.7,2.3-7.5,4-10l7.9,6.6
					C203.5,398.9,201.9,403.2,201.4,406z"/>
				<path class="st2-c" d="M216.7,402.5l-6-6c-5.3-5.3-8-13,1.2-22.3s16.9-6.6,22.3-1.2l6,6c5.3,5.3,8,13-1.2,22.3
					S222.1,407.8,216.7,402.5z M232.7,386.9l-6.5-6.5c-2.5-2.5-5.1-2.6-7.9,0.2c-2.8,2.8-2.7,5.5-0.2,7.9l6.5,6.5
					c2.5,2.5,5.1,2.6,7.9-0.2C235.3,392,235.2,389.3,232.7,386.9z"/>
				<path class="st2-c" d="M271,368.2L253.8,351c-1.2-1.2-2.4-1.3-3.7,0c-1.4,1.4-3,4.9-3.7,7.5l17.2,17.2l-7.7,7.7l-26-26l5.7-5.7
					l2.8,1.2c1.7-4.8,4.9-9.9,7.9-12.9c4.4-4.4,9.3-2.7,14.3,2.4l18.2,18.2L271,368.2z"/>
				<path class="st2-c" d="M301.8,316.7c5.4,5.4,7.2,14.6-2.9,24.7c-10,10-19.3,8.3-24.7,2.9l-14.9-14.9c-5.4-5.4-7.2-14.6,2.9-24.7
					c10-10,19.3-8.3,24.7-2.9L301.8,316.7z M279.6,310.5c-2.8-2.8-6.3-2.7-10.3,1.3s-4.1,7.5-1.3,10.3l13.5,13.5
					c2.8,2.8,6.3,2.7,10.3-1.3c4-4,4.1-7.5,1.3-10.3L279.6,310.5z"/>
				<path class="st2-c" d="M329.3,311c-4.1,4.1-9.4,7.5-13.8,9.2l-4.9-7.5c4.3-2.2,8.3-4.9,12-8.6c4.1-4.1,4.1-5.7,1.1-8.7
					c-3.2-3.2-3.7-3.4-10.8,1.1c-10.5,6.7-13.5,6.3-21.2-1.4c-7.1-7.1-7.4-12.5,2.4-22.2c3.1-3.1,7.2-6.5,12-9.6l5.9,7.5
					c-4.8,3.4-7.7,5.7-10.9,8.9c-3.6,3.6-3.7,5-1.1,7.6c3.4,3.4,3.6,3.3,10.6-1c11.9-7.3,14.3-5.9,21.3,1.1
					C338.8,294.5,340,300.3,329.3,311z"/>
			</g>
		</g>
	</g>
	<g>
		<path class="st1-c" d="M889.2,328.5c-32.8,32.8-65.5,65.5-98.3,98.3c-7.4,7.4-13.7,7.4-21,0c-31-31-62-62-92.9-92.9
			c-7.4-7.4-7.4-13.7-0.1-21c65-65,130-130,195-195c17.3-17.3,39.4-17.4,56.8-0.2c19.5,19.4,38.9,38.9,58.3,58.3
			c15.9,16,15.9,38.8,0,54.7C954.3,263.4,921.7,295.9,889.2,328.5z"/>
		<path class="st0-c" d="M692.1,408c3.3,3.5,5.6,1.4,8.2-1.3c6.9-7.1,13.9-14,21.1-21.2c11.9,11.9,23.4,23.4,35.2,35.2
			c-1,1.1-2,2.3-3,3.4c-20.9,20.9-41.8,41.8-62.7,62.7c-4.2,4.2-4.9,4.2-8.9,0.2c-10.2-10.1-20.3-20.3-31-31c5-5,9.7-9.7,14.4-14.4
			c3.4-3.5,3.4-3.5,0.9-7.7C674.7,425.4,683.3,416.8,692.1,408z"/>
		<path class="st0-c" d="M662,437.8c-4.9,4.9-9.6,9.6-14.6,14.6c-11-11-21.7-21.6-32.3-32.5c-0.9-0.9-0.5-3.4-0.2-5
			c0.2-0.9,1.4-1.6,2.2-2.4c20.7-20.7,41.4-41.4,62.1-62.1c1.1-1.1,2.2-2.2,3.6-3.6c11.8,11.8,23.2,23.2,35,35
			c-7.2,7.2-14.3,14.3-21.8,21.8c-3.8-3.6-6.3-0.6-9,2.2c-7.8,8-15.7,15.9-23.8,23.7C660.4,432.4,658.9,434.7,662,437.8z"/>
		<g>
			<g>
				<path class="st2-c" d="M794.3,337l-12.8-12.8c-0.9-0.9-1.8-1-2.8,0c-1,1-2.1,3.7-2.7,5.6l12.8,12.8l-5.7,5.7l-27.3-27.3l4.8-6.4
					l10.1,10.1c1.3-3.4,2.9-6.5,5.1-8.7c3.3-3.3,6.9-2,10.7,1.7l13.6,13.6L794.3,337z"/>
				<path class="st2-c" d="M791.2,301.5l12.8,12.8c0.9,0.9,1.8,1,2.8,0c1-1,2.2-3.7,2.8-5.6l-12.8-12.8l5.7-5.7l19.4,19.4l-4.3,4.3
					l-2.1-0.9c-1.2,3.5-3.6,7.4-5.8,9.6c-3.3,3.3-6.9,2-10.7-1.7l-13.6-13.6L791.2,301.5z"/>
				<path class="st2-c" d="M820.9,286.9l11.8,11.8l-5.7,5.7L807.6,285l4.8-4.8l2.3,1.5c0.4-2,1.7-5.6,2.9-7.5l5.9,4.9
					C822.5,281.6,821.3,284.7,820.9,286.9z"/>
				<path class="st2-c" d="M832.3,284.2l-4.5-4.5c-4-4-6-9.7,0.9-16.6s12.6-4.9,16.6-0.9l4.5,4.5c4,4,6,9.7-0.9,16.6
					S836.2,288.2,832.3,284.2z M844.2,272.6l-4.8-4.8c-1.8-1.8-3.8-1.9-5.9,0.2c-2.1,2.1-2,4.1-0.2,5.9l4.8,4.8
					c1.8,1.8,3.8,1.9,5.9-0.2C846.1,276.4,846,274.5,844.2,272.6z"/>
				<path class="st2-c" d="M872.6,258.7l-12.8-12.8c-0.9-0.9-1.8-1-2.8,0c-1,1-2.2,3.7-2.8,5.6l12.8,12.8l-5.7,5.7L842,250.7l4.3-4.3
					l2.1,0.9c1.2-3.5,3.6-7.4,5.8-9.6c3.3-3.3,6.9-2,10.7,1.7l13.6,13.6L872.6,258.7z"/>
				<path class="st2-c" d="M895.5,220.4c4,4,5.3,10.9-2.1,18.4c-7.5,7.5-14.3,6.2-18.4,2.1l-11-11c-4-4-5.3-10.9,2.1-18.4
					c7.5-7.5,14.3-6.2,18.4-2.1L895.5,220.4z M879,215.8c-2.1-2.1-4.6-2-7.6,1c-3,3-3,5.6-1,7.6l10,10c2.1,2.1,4.6,2,7.6-1
					s3-5.6,1-7.6L879,215.8z"/>
				<path class="st2-c" d="M916,216.2c-3.1,3.1-7,5.6-10.3,6.8l-3.6-5.6c3.2-1.7,6.2-3.6,8.9-6.4c3.1-3.1,3.1-4.3,0.8-6.5
					c-2.4-2.4-2.8-2.5-8.1,0.8c-7.8,5-10,4.7-15.7-1c-5.3-5.3-5.5-9.3,1.7-16.5c2.3-2.3,5.3-4.8,8.9-7.2l4.4,5.6
					c-3.5,2.5-5.7,4.2-8.1,6.6c-2.7,2.7-2.8,3.7-0.8,5.7c2.5,2.5,2.7,2.5,7.9-0.7c8.9-5.4,10.6-4.4,15.8,0.8
					C923.1,203.9,923.9,208.2,916,216.2z"/>
			</g>
		</g>
	</g>
</g>
<g>
</g>
<g>
</g>
<g>
</g>
<g>
</g>
<g>
</g>
<g>
</g>
<g>
</g>
<g>
</g>
<g>
</g>
<g>
</g>
<g>
</g>
<g>
</g>
<g>
</g>
<g>
</g>
<g>
</g>
</svg>
